<?xml version="1.0" encoding="UTF-8"?>
<svg id="Layer_2" xmlns="http://www.w3.org/2000/svg" version="1.1" viewBox="0 0 204.84 208.97">
  <!-- Generator: Adobe Illustrator 30.0.0, SVG Export Plug-In . SVG Version: 2.1.1 Build 123)  -->
  <defs>
    <style>
      .st0 {
        fill: #fff;
      }
    </style>
  </defs>
  <g id="Layer_21">
    <path class="st0" d="M103.32,23.48l-.36.24-.34.22h0l-7.21,4.74v5.82l-.57.37-24.16,15.76h-12.4v-2.5h11.66l22.97-14.99v-5.81l8.35-5.48.34-.22.37-.25c.02.8.44,1.57,1.18,2.01.06.03.12.07.18.09,0,0-.01,0-.01,0Z"/>
    <path class="st0" d="M179.35,67.62h-1.34v2.13l-25.42-18.76h-14.81l-24.09-16.51v-6.22l-7.41-4.4-.37-.21-.35-.22c.37-.2.7-.51.93-.9s.34-.82.34-1.25l.37.22.35.21,8.64,5.13v6.32l22.37,15.33h14.85l25.94,19.13h0Z"/>
    <path class="st0" d="M105.82,18.86c-1.34-.8-3.06-.36-3.86.98-.33.56-.45,1.19-.37,1.79h0c.11.85.58,1.62,1.36,2.08h.01c.95.56,2.08.5,2.94-.06h.01c.36-.23.66-.54.89-.93.23-.38.36-.8.39-1.22h0c.08-1.04-.42-2.08-1.37-2.64ZM106.49,22.53c-.23.39-.56.7-.93.9-.68.37-1.51.41-2.24.05-.06-.02-.12-.06-.18-.09-.18-.11-.34-.23-.48-.39-.07-.07-.14-.15-.2-.23-.07-.08-.12-.16-.17-.25-.21-.34-.32-.73-.33-1.13h0c-.03-.47.08-.94.33-1.36.69-1.15,2.19-1.54,3.35-.85.77.46,1.19,1.27,1.19,2.1,0,.43-.11.86-.34,1.25Z"/>
    <path class="st0" d="M106.01,18.54c-1.51-.9-3.47-.4-4.37,1.11-.41.69-.53,1.47-.39,2.2h0c.14.84.62,1.58,1.36,2.09h0l.13.09c1.13.67,2.52.56,3.52-.17h.01c.34-.26.62-.56.85-.94.22-.38.36-.79.41-1.21h0c.16-1.24-.4-2.5-1.53-3.17h.01ZM103.32,23.48c-.06-.02-.12-.06-.18-.09-.18-.11-.34-.23-.48-.39-.07-.07-.14-.15-.2-.23-.07-.08-.12-.16-.17-.25-.21-.34-.32-.73-.33-1.13h0c-.03-.47.08-.94.33-1.36.69-1.15,2.19-1.54,3.35-.85.77.46,1.19,1.27,1.19,2.1,0,.43-.11.86-.34,1.25-.23.39-.56.7-.93.9-.68.37-1.51.41-2.24.05Z"/>
    <polygon class="st0" points="94.83 34.87 70.67 50.63 58.27 50.63 58.27 48.13 69.93 48.13 92.9 33.14 93.46 32.77 94.83 34.87"/>
    <path class="st0" d="M99.91,131.54l-.23.19v-.31c.08.03.15.07.23.12Z"/>
    <path class="st0" d="M90.2,14.61v13.43l-16.17,11.52-.33.24-.37.25c-.02-.44-.17-.87-.44-1.24s-.61-.64-1-.8l.35-.25.34-.24,15.12-10.77v-10.41l2.5-1.73h0Z"/>
    <path class="st0" d="M69.95,42.47l-.35.26-.34.24-7.13,5.16-3.46,2.5-27.19,19.67v-2.1h-1.36l37.68-27.25.33-.24.36-.26c.02.42.17.85.44,1.22.27.37.63.64,1.02.8Z"/>
    <path class="st0" d="M73.7,39.8c-.07-.43-.23-.84-.5-1.21-.26-.36-.59-.64-.96-.83-.92-.5-2.08-.46-2.98.19-.9.66-1.3,1.74-1.13,2.76.07.41.24.82.5,1.18s.6.65.97.84c.92.49,2.06.44,2.96-.21.9-.64,1.3-1.71,1.14-2.72ZM72.34,42.22c-.72.52-1.63.59-2.39.25-.39-.16-.75-.43-1.02-.8s-.42-.8-.44-1.22c-.08-.83.27-1.67.99-2.19.72-.53,1.64-.6,2.41-.25.39.16.73.43,1,.8s.42.8.44,1.24c.01.08.01.16.01.23,0,.75-.35,1.47-1,1.94Z"/>
    <path class="st0" d="M74.03,39.56c-.09-.42-.26-.83-.53-1.19-.25-.35-.57-.64-.92-.85-1.06-.66-2.46-.65-3.54.13-1.07.77-1.52,2.09-1.24,3.3.09.4.26.8.52,1.16.26.36.58.65.94.86,1.07.65,2.46.63,3.52-.14,1.06-.76,1.51-2.07,1.25-3.27ZM69.95,42.47c-.39-.16-.75-.43-1.02-.8s-.42-.8-.44-1.22c-.08-.83.27-1.67.99-2.19.72-.53,1.64-.6,2.41-.25.39.16.73.43,1,.8s.42.8.44,1.24c.01.08.01.16.01.23,0,.75-.35,1.47-1,1.94-.72.52-1.63.59-2.39.25Z"/>
    <path class="st0" d="M138.15,38.87c-.39.18-.74.46-1,.84s-.39.8-.41,1.23l-.36-.24-.33-.23-17.44-11.87v-13.27l2.5,1.81v10.14l16.34,11.12.34.23.36.24h0Z"/>
    <path class="st0" d="M140.76,38.75c-.92-.62-2.07-.63-2.97-.12-.37.21-.7.5-.95.87-.25.38-.41.79-.46,1.2-.14,1.03.29,2.09,1.21,2.72,1.28.87,3.04.54,3.91-.75.88-1.28.55-3.04-.74-3.92ZM141.19,42.46c-.76,1.12-2.28,1.41-3.39.65-.74-.5-1.12-1.34-1.06-2.17.02-.43.15-.85.41-1.23s.61-.66,1-.84c.75-.35,1.66-.3,2.4.19,1.11.76,1.4,2.29.64,3.4Z"/>
    <path class="st0" d="M140.97,38.44c-1.09-.74-2.48-.71-3.52-.04-.36.22-.67.52-.92.89s-.41.77-.48,1.18c-.24,1.14.18,2.37,1.15,3.14.05.04.1.08.17.12,1.46.99,3.45.61,4.44-.85.99-1.45.62-3.44-.84-4.44ZM137.8,43.11c-.74-.5-1.12-1.34-1.06-2.17.02-.43.15-.85.41-1.23s.61-.66,1-.84c.75-.35,1.66-.3,2.4.19,1.11.76,1.4,2.29.64,3.4-.76,1.12-2.28,1.41-3.39.65Z"/>
    <path class="st0" d="M170.84,119.41v.83c-.37-.22-.8-.34-1.25-.34s-.88.12-1.25.34v-.83c.38-.17.81-.26,1.25-.26s.87.09,1.25.26Z"/>
    <path class="st0" d="M170.84,119.81c-.38-.18-.8-.29-1.25-.29s-.87.11-1.25.3c-.93.46-1.57,1.41-1.57,2.52,0,1.56,1.27,2.82,2.82,2.82s2.82-1.26,2.82-2.82c0-1.11-.64-2.07-1.57-2.53ZM169.59,124.78c-1.35,0-2.44-1.09-2.44-2.44,0-.89.48-1.67,1.19-2.1.37-.22.8-.34,1.25-.34s.88.12,1.25.34c.72.43,1.2,1.21,1.2,2.1,0,1.35-1.1,2.44-2.45,2.44Z"/>
    <path class="st0" d="M170.84,119.41c-.38-.17-.81-.26-1.25-.26s-.87.09-1.25.26c-1.14.48-1.94,1.61-1.94,2.93,0,1.76,1.43,3.19,3.19,3.19s3.2-1.43,3.2-3.19c0-1.32-.81-2.45-1.95-2.93ZM169.59,124.78c-1.35,0-2.44-1.09-2.44-2.44,0-.89.48-1.67,1.19-2.1.37-.22.8-.34,1.25-.34s.88.12,1.25.34c.72.43,1.2,1.21,1.2,2.1,0,1.35-1.1,2.44-2.45,2.44Z"/>
    <path class="st0" d="M170.84,69.82v49.59c-.38-.17-.81-.26-1.25-.26s-.87.09-1.25.26v-48.25l-15.38-10.26c-.89.52-2.05.52-2.97-.1-1.3-.86-1.65-2.61-.78-3.91.86-1.29,2.61-1.64,3.91-.78.92.61,1.36,1.68,1.22,2.71,0,0,16.5,11,16.5,11Z"/>
    <path class="st0" d="M59.78,60.8c-.92.62-2.08.62-2.97.1l-15.38,10.26v48.25c-.38-.17-.81-.26-1.25-.26s-.87.09-1.25.26v-49.59l16.5-11c-.14-1.03.3-2.1,1.22-2.71,1.3-.86,3.05-.51,3.91.78.87,1.3.52,3.05-.78,3.91Z"/>
    <path class="st0" d="M41.43,119.41v.83c-.36-.22-.79-.34-1.25-.34s-.89.12-1.25.34v-.83c.38-.17.81-.26,1.25-.26s.87.09,1.25.26Z"/>
    <path class="st0" d="M41.43,119.82c-.37-.19-.8-.3-1.25-.3s-.88.11-1.25.3c-.93.45-1.57,1.41-1.57,2.52,0,1.56,1.26,2.82,2.82,2.82s2.82-1.26,2.82-2.82c0-1.11-.64-2.07-1.57-2.52ZM40.18,124.78c-1.35,0-2.45-1.09-2.45-2.44,0-.89.48-1.67,1.2-2.1.36-.22.79-.34,1.25-.34s.89.12,1.25.34c.71.43,1.19,1.21,1.19,2.1,0,1.35-1.09,2.44-2.44,2.44Z"/>
    <path class="st0" d="M41.43,119.41c-.38-.17-.81-.26-1.25-.26s-.87.09-1.25.26c-1.14.48-1.95,1.61-1.95,2.93,0,1.76,1.44,3.19,3.2,3.19s3.19-1.43,3.19-3.19c0-1.32-.8-2.45-1.94-2.93ZM40.18,124.78c-1.35,0-2.45-1.09-2.45-2.44,0-.89.48-1.67,1.2-2.1.36-.22.79-.34,1.25-.34s.89.12,1.25.34c.71.43,1.19,1.21,1.19,2.1,0,1.35-1.09,2.44-2.44,2.44Z"/>
    <path class="st0" d="M95.67,45.98c-.93.6-2.09.58-2.98.04l-8.98,5.76c-.06-.43-.22-.85-.48-1.23-.24-.36-.53-.65-.87-.87l8.98-5.77c-.11-1.03.35-2.08,1.28-2.68,1.31-.84,3.06-.46,3.9.85.84,1.31.46,3.05-.85,3.9h0Z"/>
    <path class="st0" d="M83.71,51.78l-.34.22-.36.23c-.01-.44-.14-.87-.41-1.27-.25-.37-.57-.65-.95-.83l.36-.23h.01l.34-.22c.34.22.63.51.87.87.26.38.42.8.48,1.23Z"/>
    <path class="st0" d="M83.36,52.01h0c0-.17-.04-.33-.09-.48-.04-.13-.09-.25-.14-.38-.05-.12-.12-.24-.2-.36v-.04s-.06-.08-.1-.11c-.03-.05-.07-.1-.11-.15-.16-.19-.34-.36-.54-.49-.03-.02-.06-.05-.1-.07-.02,0-.03,0-.05-.03h-.01c-.07-.05-.14-.09-.22-.13-.07-.03-.15-.06-.23-.09-.1-.04-.21-.07-.31-.1s-.19-.05-.28-.06c-.4-.05-.82-.03-1.21.09-.13.04-.26.09-.39.15s-.25.13-.37.21c-.1.07-.2.14-.29.22-.09.08-.17.16-.25.25-.11.12-.21.26-.29.4-.05.05-.08.11-.11.17-.05.1-.1.2-.14.31-.07.19-.12.39-.15.59-.04.25-.04.51,0,.76.01.15.04.29.08.43.04.13.08.25.14.38.05.12.12.24.2.36,0,0,0,0,.01.02,0,0,.01,0,.01.02.06.09.13.18.2.26.21.25.46.46.74.61.03.03.07.05.11.06.19.11.4.19.61.25.49.11,1,.11,1.49-.04.13-.04.26-.09.39-.15s.25-.13.37-.21c.51-.34.88-.82,1.08-1.35.07-.19.12-.39.15-.59.04-.24.04-.47,0-.71ZM83.01,52.29c0,.81-.38,1.59-1.09,2.06-.74.49-1.65.53-2.4.17-.39-.18-.74-.47-.99-.85-.25-.38-.38-.81-.39-1.24-.05-.83.33-1.66,1.08-2.15.75-.5,1.68-.53,2.43-.15.38.18.7.46.95.83.27.4.4.83.41,1.27,0,0,0,.06,0,.06Z"/>
    <path class="st0" d="M79.52,54.52l-.36.23-.34.23c-.35-.22-.67-.53-.91-.9-.25-.37-.41-.77-.48-1.18l.35-.23.36-.24c.01.43.14.86.39,1.24s.6.67.99.85Z"/>
    <path class="st0" d="M83.36,52.01h0c0-.17-.04-.33-.09-.48-.04-.13-.09-.25-.14-.38-.05-.12-.12-.24-.2-.36v-.04s-.06-.08-.1-.11c-.03-.05-.07-.1-.11-.15-.16-.19-.34-.36-.54-.49-.03-.02-.06-.05-.1-.07-.02,0-.03,0-.05-.03h-.02c-.07-.05-.14-.09-.21-.13-.07-.03-.15-.06-.23-.09-.1-.04-.21-.07-.31-.1s-.19-.05-.28-.06c-.4-.05-.82-.03-1.21.09-.13.04-.26.09-.39.15s-.25.13-.37.21c-.1.07-.2.14-.29.22-.09.08-.17.16-.25.25-.11.12-.21.26-.29.4-.05.05-.08.11-.11.17-.05.1-.1.2-.14.31-.07.19-.12.39-.15.59-.04.25-.04.51,0,.76.01.15.04.29.08.43.04.13.08.25.14.38.05.12.12.24.2.36,0,0,0,0,.01.02,0,0,.01,0,.01.02.06.09.13.18.2.26.21.25.46.46.74.61.03.03.07.05.11.06.19.11.4.19.61.25.49.11,1,.11,1.49-.04.13-.04.26-.09.39-.15s.25-.13.37-.21c.51-.34.88-.82,1.08-1.35.07-.19.12-.39.15-.59.04-.24.04-.47,0-.71ZM83.01,52.29c0,.81-.38,1.59-1.09,2.06-.74.49-1.65.53-2.4.17-.39-.18-.74-.47-.99-.85-.25-.38-.38-.81-.39-1.24-.05-.83.33-1.66,1.08-2.15.75-.5,1.68-.53,2.43-.15.38.18.7.46.95.83.27.4.4.83.41,1.27,0,0,0,.06,0,.06Z"/>
    <path class="st0" d="M83.71,51.78c-.06-.43-.22-.85-.48-1.23-.24-.36-.53-.65-.87-.87-1.04-.71-2.44-.77-3.56-.03-1.1.73-1.6,2.03-1.37,3.25.07.41.23.81.48,1.18.24.37.56.68.91.9,1.03.68,2.4.72,3.49.02.01,0,.02,0,.03-.02.04-.02.08-.05.11-.07l-.08.04c1.06-.72,1.54-1.98,1.34-3.17ZM78.53,53.67c-.25-.38-.38-.81-.39-1.24-.05-.83.33-1.66,1.08-2.15.75-.5,1.68-.53,2.43-.15.38.18.7.46.95.83.27.4.4.83.41,1.27v.06c0,.81-.38,1.59-1.09,2.06-.74.49-1.65.53-2.4.17-.39-.18-.74-.47-.99-.85Z"/>
    <path class="st0" d="M73.12,90.4c0,1.56-1.26,2.82-2.82,2.82-1.11,0-2.07-.64-2.52-1.57h-18.85v16.16c.92.45,1.56,1.41,1.56,2.52,0,1.55-1.26,2.82-2.81,2.82s-2.82-1.27-2.82-2.82c0-1.11.64-2.07,1.57-2.52v-34.3l31-20.61c.07.41.23.81.48,1.18.24.37.56.68.91.9l-29.89,19.87v14.3h18.85c.45-.93,1.41-1.57,2.52-1.57,1.56,0,2.82,1.26,2.82,2.82Z"/>
    <path class="st0" d="M105.64,38.21v11.27l-8.04,7.8v6.08h-2.5v-7.14l8.04-7.8v-10.21c.37.22.8.35,1.25.35s.88-.13,1.25-.35Z"/>
    <path class="st0" d="M104.39,33.29c-1.56,0-2.82,1.26-2.82,2.82,0,1.11.64,2.07,1.57,2.53.38.19.8.29,1.25.29s.87-.1,1.25-.29c.93-.46,1.57-1.42,1.57-2.53,0-1.56-1.26-2.82-2.82-2.82ZM105.64,38.21c-.37.22-.8.35-1.25.35s-.88-.13-1.25-.35c-.72-.42-1.2-1.21-1.2-2.1,0-1.35,1.1-2.44,2.45-2.44s2.44,1.09,2.44,2.44c0,.89-.48,1.68-1.19,2.1Z"/>
    <path class="st0" d="M104.39,32.92c-1.76,0-3.2,1.43-3.2,3.19,0,1.32.81,2.45,1.95,2.95.38.16.81.25,1.25.25s.87-.09,1.25-.25c1.14-.5,1.94-1.63,1.94-2.95,0-1.76-1.43-3.19-3.19-3.19ZM105.64,38.21c-.37.22-.8.35-1.25.35s-.88-.13-1.25-.35c-.72-.42-1.2-1.21-1.2-2.1,0-1.35,1.1-2.44,2.45-2.44s2.44,1.09,2.44,2.44c0,.89-.48,1.68-1.19,2.1Z"/>
    <path class="st0" d="M127.46,50.11s-.02,0-.03.02c-.06.02-.12.05-.17.09v-.24l.2.13Z"/>
    <path class="st0" d="M131.64,52.89c-.06.4-.21.79-.44,1.15-.25.39-.57.71-.94.94l-.34-.22-.16-.11v8.71h-2.5v-8.95c1.13.68,2.59.34,3.31-.77.24-.38.37-.8.38-1.21l.36.24.33.22Z"/>
    <path class="st0" d="M162.66,107.39v.84c-.37-.22-.8-.35-1.25-.35s-.88.13-1.25.35v-.84c.38-.17.81-.26,1.25-.26s.87.09,1.25.26Z"/>
    <path class="st0" d="M162.66,107.81c-.38-.2-.8-.3-1.25-.3s-.87.1-1.25.29c-.93.46-1.57,1.42-1.57,2.53,0,1.55,1.26,2.82,2.82,2.82s2.82-1.27,2.82-2.82c0-1.11-.64-2.06-1.57-2.52ZM161.41,112.77c-1.35,0-2.45-1.1-2.45-2.44,0-.89.48-1.68,1.2-2.1.37-.22.8-.35,1.25-.35s.88.13,1.25.35c.71.42,1.19,1.21,1.19,2.1,0,1.34-1.09,2.44-2.44,2.44Z"/>
    <path class="st0" d="M162.66,107.39c-.38-.17-.81-.26-1.25-.26s-.87.09-1.25.26c-1.14.48-1.95,1.62-1.95,2.94,0,1.76,1.44,3.19,3.2,3.19s3.19-1.43,3.19-3.19c0-1.32-.8-2.46-1.94-2.94ZM161.41,112.77c-1.35,0-2.45-1.1-2.45-2.44,0-.89.48-1.68,1.2-2.1.37-.22.8-.35,1.25-.35s.88.13,1.25.35c.71.42,1.19,1.21,1.19,2.1,0,1.34-1.09,2.44-2.44,2.44Z"/>
    <path class="st0" d="M126.72,49.68c-.35.23-.65.54-.89.91s-.4.77-.46,1.19l-8.98-5.76c-.89.54-2.05.56-2.98-.04-1.31-.85-1.69-2.59-.85-3.9s2.59-1.69,3.9-.85c.93.6,1.39,1.65,1.28,2.68l8.98,5.77h0Z"/>
    <path class="st0" d="M127.43,50.13c-.06.02-.12.05-.17.09-.32.18-.59.44-.8.77-.25.39-.38.81-.39,1.24l-.36-.23-.34-.22c.06-.42.22-.82.46-1.19s.54-.68.89-.91l.34.22.2.12s.17.11.17.11Z"/>
    <path class="st0" d="M126.17,51.59h.01s.03-.1.05-.15c-.02.05-.04.1-.06.15ZM130.04,49.94c-.93-.6-2.09-.58-2.98-.04-.36.21-.68.51-.92.89s-.38.79-.43,1.21c-.11,1.03.35,2.09,1.28,2.69.09.06.18.11.27.15.8.4,1.73.38,2.5,0,.05-.02.11-.05.16-.08.38-.21.72-.53.97-.92.23-.36.38-.77.42-1.17.14-1.05-.33-2.12-1.27-2.73h0ZM130.57,53.64c-.72,1.11-2.18,1.45-3.31.77-.03,0-.05-.03-.07-.04-.74-.48-1.14-1.3-1.12-2.13h0c0-.12.01-.22.03-.33.01-.11.04-.21.07-.32h.01s.03-.1.05-.15c.02-.05.04-.1.06-.15.05-.1.11-.2.17-.3.21-.33.48-.59.8-.77.05-.04.11-.07.17-.09,0,0,.02-.02.03-.02.73-.35,1.63-.32,2.37.15.76.49,1.16,1.33,1.12,2.17,0,.41-.14.83-.38,1.21h0Z"/>
    <path class="st0" d="M130.24,49.63c-1.11-.71-2.49-.65-3.52.05-.35.23-.65.54-.89.91s-.4.77-.46,1.19c-.21,1.22.31,2.51,1.42,3.22.15.1.31.18.47.25.81.35,1.72.34,2.5,0,.18-.07.34-.16.5-.27.37-.23.69-.55.94-.94.23-.36.38-.75.44-1.15.24-1.23-.28-2.54-1.4-3.26h0ZM126.07,52.23c0-.11.01-.21.03-.32.01-.11.04-.21.07-.32.02-.05.04-.1.06-.15.02-.05.04-.1.06-.15.05-.1.11-.2.17-.3.21-.33.48-.59.8-.77.05-.04.11-.07.17-.09,0,0,.02-.02.03-.02.73-.35,1.63-.32,2.37.15.76.49,1.16,1.33,1.12,2.17,0,.41-.14.83-.38,1.21-.72,1.11-2.18,1.45-3.31.77-.03,0-.05-.03-.07-.04-.74-.48-1.14-1.3-1.12-2.13h0Z"/>
    <path class="st0" d="M162.66,107.39v.84c-.37-.22-.8-.35-1.25-.35s-.88.13-1.25.35v-.84c.38-.17.81-.26,1.25-.26s.87.09,1.25.26Z"/>
    <path class="st0" d="M164.23,74.18c0,1.1-.64,2.05-1.57,2.51v30.7c-.38-.17-.81-.26-1.25-.26s-.87.09-1.25.26v-15.74h-18.85c-.46.93-1.42,1.57-2.53,1.57-1.55,0-2.82-1.26-2.82-2.82s1.27-2.82,2.82-2.82c1.11,0,2.07.64,2.53,1.57h18.85v-12.45c-.93-.46-1.57-1.42-1.57-2.52,0-.12,0-.24.02-.36l-28.35-18.84c.37-.23.69-.55.94-.94.23-.36.38-.75.44-1.15l28.36,18.85c.41-.24.9-.38,1.41-.38,1.55,0,2.82,1.26,2.82,2.82h0Z"/>
    <path class="st0" d="M162.66,107.81c-.38-.2-.8-.3-1.25-.3s-.87.1-1.25.29c-.93.46-1.57,1.42-1.57,2.53,0,1.55,1.26,2.82,2.82,2.82s2.82-1.27,2.82-2.82c0-1.11-.64-2.06-1.57-2.52ZM161.41,112.77c-1.35,0-2.45-1.1-2.45-2.44,0-.89.48-1.68,1.2-2.1.37-.22.8-.35,1.25-.35s.88.13,1.25.35c.71.42,1.19,1.21,1.19,2.1,0,1.34-1.09,2.44-2.44,2.44Z"/>
    <path class="st0" d="M162.66,107.39c-.38-.17-.81-.26-1.25-.26s-.87.09-1.25.26c-1.14.48-1.95,1.62-1.95,2.94,0,1.76,1.44,3.19,3.2,3.19s3.19-1.43,3.19-3.19c0-1.32-.8-2.46-1.94-2.94ZM161.41,112.77c-1.35,0-2.45-1.1-2.45-2.44,0-.89.48-1.68,1.2-2.1.37-.22.8-.35,1.25-.35s.88.13,1.25.35c.71.42,1.19,1.21,1.19,2.1,0,1.34-1.09,2.44-2.44,2.44Z"/>
    <path class="st0" d="M129.76,107.85v14.51h-12.81c-.47.98-1.47,1.66-2.63,1.66-.43,0-.84-.1-1.21-.27l-11.66,9.76c.09.28.13.58.13.89,0,1.83-1.48,3.31-3.31,3.31-1.07,0-2.03-.51-2.62-1.31-.43-.55-.68-1.24-.68-2s.25-1.45.69-2c.38-.51.91-.9,1.52-1.11v-36.24h2.5v36.68l.23-.19,11.6-9.7c-.07-.23-.1-.48-.1-.73,0-1.61,1.31-2.92,2.91-2.92,1.16,0,2.17.68,2.63,1.67h10.31v-12.01s2.5,0,2.5,0Z"/>
    <path class="st0" d="M100.98,63.36h-9.25l-20.44,44.49h8.08l6.14-12.8h21.24l6.4,12.8h8.27s-20.44-44.49-20.44-44.49ZM87.11,89.37l5.86-12.87c1.16-2.71,2.14-5.42,2.94-8.06h.26c.89,2.58,1.78,5.22,3.12,8.12l5.86,12.81h-18.04Z"/>
    <rect class="st0" x="124.82" y="63.36" width="6.59" height="44.49"/>
    <path class="st0" d="M199.52,67.62h-6.71l-30.19-22.52v-26.25h-17.71v15.52l-23.8-17.23-2.5-1.81-14.4-10.42-14.01,9.7-2.5,1.73L12.8,68.2h18.68v64.2h64.18c-.44.55-.69,1.25-.69,2,0,.13.01.26.03.39v.06h.01s0,.07.01.1h0c.02.14.05.27.09.4.04.13.09.25.14.37h0c.05.12.1.23.17.33.06.12.14.24.23.35H27.48v-64.2H0L104.26,0l35.15,25.46,1.18.85.32.23v-11.69h25.71v28.17l32.9,24.6h0Z"/>
    <path class="st0" d="M204.84,71.62h-22.83v64.81h-66.92c-.59.78-1.54,1.28-2.6,1.28-1.83,0-3.31-1.48-3.31-3.31s1.48-3.3,3.31-3.3c1.09,0,2.05.52,2.65,1.33h62.87v-64.81h21.51l5.32,4h0Z"/>
  </g>
  <g>
    <path class="st0" d="M52.21,179.93h-4.36v-16.04h-16.35v16.04h-4.36v-32.76h4.36v12.85h16.35v-12.85h4.36v32.76Z"/>
    <path class="st0" d="M85.43,150.93c1.33,1.47,2.36,3.26,3.07,5.39s1.07,4.54,1.07,7.24-.36,5.12-1.09,7.25-1.74,3.91-3.05,5.34c-1.35,1.48-2.94,2.6-4.79,3.34s-3.94,1.12-6.3,1.12-4.4-.38-6.28-1.14-3.49-1.87-4.81-3.32-2.34-3.23-3.05-5.35-1.07-4.52-1.07-7.24.35-5.06,1.06-7.18,1.73-3.93,3.08-5.45c1.29-1.44,2.89-2.54,4.81-3.3s4-1.14,6.26-1.14,4.46.39,6.33,1.16,3.46,1.87,4.76,3.29ZM85.03,163.56c0-4.25-.95-7.54-2.86-9.85s-4.51-3.47-7.81-3.47-5.94,1.16-7.84,3.47-2.85,5.59-2.85,9.85.97,7.59,2.9,9.87,4.53,3.42,7.79,3.42,5.85-1.14,7.78-3.42,2.89-5.57,2.89-9.87Z"/>
    <path class="st0" d="M121.14,166.77c0,2.38-.26,4.45-.78,6.22s-1.38,3.24-2.56,4.41c-1.13,1.11-2.45,1.93-3.96,2.44s-3.27.77-5.28.77-3.84-.27-5.37-.81-2.81-1.34-3.85-2.4c-1.19-1.2-2.04-2.65-2.56-4.36s-.78-3.79-.78-6.27v-19.6h4.36v19.82c0,1.77.12,3.18.36,4.2s.65,1.96,1.22,2.79c.65.95,1.52,1.67,2.63,2.16s2.44.73,3.99.73,2.9-.24,4-.72,1.98-1.2,2.64-2.17c.57-.84.98-1.79,1.22-2.87s.36-2.42.36-4.02v-19.93h4.36v19.6Z"/>
    <path class="st0" d="M153.26,170.58c0,1.28-.3,2.54-.89,3.78s-1.43,2.3-2.5,3.17c-1.17.94-2.54,1.67-4.1,2.2s-3.44.79-5.64.79c-2.36,0-4.48-.22-6.37-.66s-3.8-1.09-5.75-1.96v-5.46h.31c1.66,1.38,3.57,2.44,5.74,3.19s4.21,1.12,6.12,1.12c2.7,0,4.8-.51,6.3-1.52s2.26-2.36,2.26-4.05c0-1.45-.36-2.52-1.07-3.21s-1.79-1.22-3.25-1.61c-1.1-.29-2.29-.54-3.58-.73s-2.64-.43-4.08-.73c-2.9-.62-5.06-1.67-6.46-3.16s-2.1-3.43-2.1-5.82c0-2.74,1.16-4.99,3.48-6.74s5.26-2.63,8.82-2.63c2.3,0,4.41.22,6.34.66s3.62.98,5.1,1.63v5.15h-.31c-1.25-1.06-2.89-1.93-4.92-2.63s-4.11-1.05-6.24-1.05c-2.33,0-4.21.48-5.62,1.45s-2.12,2.21-2.12,3.74c0,1.36.35,2.43,1.06,3.21s1.94,1.37,3.72,1.78c.94.21,2.27.45,4,.75s3.2.59,4.4.9c2.43.65,4.27,1.62,5.5,2.93s1.85,3.13,1.85,5.48Z"/>
    <path class="st0" d="M181.84,179.93h-21.58v-32.76h21.58v3.87h-17.23v8.98h17.23v3.87h-17.23v12.17h17.23v3.87Z"/>
  </g>
  <g>
    <path class="st0" d="M33.11,187.7c.3.33.53.74.7,1.22s.24,1.03.24,1.64-.08,1.16-.25,1.64-.4.89-.69,1.21c-.31.34-.67.59-1.09.76s-.89.25-1.43.25-1-.09-1.43-.26-.79-.42-1.09-.75-.53-.73-.69-1.21-.24-1.03-.24-1.64.08-1.15.24-1.63.39-.89.7-1.24c.29-.33.66-.58,1.09-.75s.91-.26,1.42-.26,1.01.09,1.44.26.78.42,1.08.75ZM33.02,190.57c0-.96-.22-1.71-.65-2.23s-1.02-.79-1.77-.79-1.35.26-1.78.79-.65,1.27-.65,2.23.22,1.72.66,2.24,1.03.78,1.77.78,1.33-.26,1.76-.78.66-1.26.66-2.24Z"/>
    <path class="st0" d="M40.37,187.73h-3.76v2.1h3.23v.88h-3.23v3.58h-.99v-7.43h4.75v.88Z"/>
    <path class="st0" d="M50.95,194.28h-1.05l-.73-2.07h-3.21l-.73,2.07h-1l2.71-7.43h1.32l2.71,7.43ZM48.86,191.36l-1.3-3.65-1.31,3.65h2.61Z"/>
    <path class="st0" d="M58.22,194.28h-1.28l-2.49-2.95h-1.39v2.95h-.99v-7.43h2.08c.45,0,.82.03,1.12.09s.57.16.81.31c.27.17.48.38.63.64s.23.58.23.98c0,.54-.13.98-.4,1.35s-.64.63-1.11.82l2.8,3.25ZM55.91,188.94c0-.21-.04-.4-.11-.57s-.2-.3-.37-.42c-.14-.1-.31-.16-.51-.2s-.43-.06-.69-.06h-1.16v2.81h1c.31,0,.59-.03.82-.08s.43-.16.59-.31c.15-.14.26-.3.33-.48s.11-.41.11-.69Z"/>
    <path class="st0" d="M64.18,187.73h-2.66v6.55h-.99v-6.55h-2.66v-.88h6.3v.88Z"/>
    <path class="st0" d="M67.8,194.28h-2.93v-.76h.97v-5.91h-.97v-.76h2.93v.76h-.97v5.91h.97v.76Z"/>
    <path class="st0" d="M74.23,187.73h-3.76v2.1h3.23v.88h-3.23v3.58h-.99v-7.43h4.75v.88Z"/>
    <path class="st0" d="M77.98,194.28h-2.93v-.76h.97v-5.91h-.97v-.76h2.93v.76h-.97v5.91h.97v.76Z"/>
    <path class="st0" d="M85.4,193.74c-.18.08-.35.15-.5.22s-.34.14-.58.22c-.2.06-.42.12-.66.16s-.5.07-.79.07c-.54,0-1.03-.08-1.47-.23s-.82-.39-1.15-.71c-.32-.32-.57-.72-.75-1.21s-.27-1.05-.27-1.7c0-.61.09-1.16.26-1.64s.42-.89.75-1.22c.32-.32.7-.57,1.15-.74s.94-.25,1.49-.25c.4,0,.8.05,1.2.14s.84.27,1.33.51v1.17h-.07c-.41-.34-.82-.59-1.22-.75s-.83-.23-1.29-.23c-.38,0-.71.06-1.02.18s-.57.31-.81.57c-.23.25-.41.56-.54.95s-.19.82-.19,1.32.07.97.21,1.35.32.68.55.92c.23.25.5.43.82.55s.64.18.99.18c.48,0,.92-.08,1.34-.24s.81-.41,1.17-.73h.07v1.16Z"/>
    <path class="st0" d="M89.42,194.28h-2.93v-.76h.97v-5.91h-.97v-.76h2.93v.76h-.97v5.91h.97v.76Z"/>
    <path class="st0" d="M96.96,194.28h-1.05l-.73-2.07h-3.21l-.73,2.07h-1l2.71-7.43h1.32l2.71,7.43ZM94.88,191.36l-1.3-3.65-1.31,3.65h2.61Z"/>
    <path class="st0" d="M102.79,194.28h-4.7v-7.43h.99v6.55h3.71v.88Z"/>
    <path class="st0" d="M109.99,194.28h-2.93v-.76h.97v-5.91h-.97v-.76h2.93v.76h-.97v5.91h.97v.76Z"/>
    <path class="st0" d="M117.35,194.28h-1.22l-3.52-6.65v6.65h-.92v-7.43h1.53l3.21,6.07v-6.07h.92v7.43Z"/>
    <path class="st0" d="M124.62,187.73h-2.66v6.55h-.99v-6.55h-2.66v-.88h6.3v.88Z"/>
    <path class="st0" d="M130.52,194.28h-4.9v-7.43h4.9v.88h-3.91v2.04h3.91v.88h-3.91v2.76h3.91v.88Z"/>
    <path class="st0" d="M136.79,194.28h-4.7v-7.43h.99v6.55h3.71v.88Z"/>
    <path class="st0" d="M142.48,194.28h-4.7v-7.43h.99v6.55h3.71v.88Z"/>
    <path class="st0" d="M146.09,194.28h-2.93v-.76h.97v-5.91h-.97v-.76h2.93v.76h-.97v5.91h.97v.76Z"/>
    <path class="st0" d="M153.97,193.73c-.41.19-.85.35-1.33.49s-.95.21-1.4.21c-.58,0-1.11-.08-1.59-.24s-.89-.4-1.23-.72c-.34-.32-.61-.73-.79-1.21s-.28-1.05-.28-1.7c0-1.19.35-2.13,1.04-2.81s1.65-1.03,2.86-1.03c.42,0,.85.05,1.3.15s.92.27,1.43.52v1.17h-.09c-.1-.08-.25-.18-.45-.31s-.39-.24-.58-.32c-.23-.1-.49-.19-.78-.26s-.62-.1-.99-.1c-.83,0-1.49.27-1.97.8s-.73,1.26-.73,2.17c0,.96.25,1.71.76,2.24s1.19.8,2.07.8c.32,0,.64-.03.96-.09s.6-.14.84-.24v-1.82h-1.99v-.87h2.97v3.19Z"/>
    <path class="st0" d="M160.59,194.28h-4.9v-7.43h4.9v.88h-3.91v2.04h3.91v.88h-3.91v2.76h3.91v.88Z"/>
    <path class="st0" d="M167.83,194.28h-1.22l-3.52-6.65v6.65h-.92v-7.43h1.53l3.21,6.07v-6.07h.92v7.43Z"/>
    <path class="st0" d="M175.55,193.74c-.18.08-.35.15-.5.22s-.34.14-.58.22c-.2.06-.42.12-.66.16s-.5.07-.79.07c-.54,0-1.03-.08-1.47-.23s-.82-.39-1.15-.71c-.32-.32-.57-.72-.75-1.21s-.27-1.05-.27-1.7c0-.61.09-1.16.26-1.64s.42-.89.75-1.22c.32-.32.7-.57,1.15-.74s.94-.25,1.49-.25c.4,0,.8.05,1.2.14s.84.27,1.33.51v1.17h-.07c-.41-.34-.82-.59-1.22-.75s-.83-.23-1.29-.23c-.38,0-.71.06-1.02.18s-.57.31-.81.57c-.23.25-.41.56-.54.95s-.19.82-.19,1.32.07.97.21,1.35.32.68.55.92c.23.25.5.43.82.55s.64.18.99.18c.48,0,.92-.08,1.34-.24s.81-.41,1.17-.73h.07v1.16Z"/>
    <path class="st0" d="M181.84,194.28h-4.9v-7.43h4.9v.88h-3.91v2.04h3.91v.88h-3.91v2.76h3.91v.88Z"/>
  </g>
  <g>
    <path class="st0" d="M49.98,205.8c0,.54-.06,1.02-.18,1.42s-.31.74-.59,1.01c-.26.26-.56.44-.91.56s-.75.18-1.21.18-.88-.06-1.23-.19-.64-.31-.88-.55c-.27-.28-.47-.61-.59-1s-.18-.87-.18-1.44v-4.49h1v4.54c0,.41.03.73.08.96s.15.45.28.64c.15.22.35.38.6.49s.56.17.91.17.67-.05.92-.16.45-.27.6-.5c.13-.19.22-.41.28-.66s.08-.55.08-.92v-4.57h1v4.49Z"/>
    <path class="st0" d="M57.61,208.81h-1.23l-3.56-6.71v6.71h-.93v-7.5h1.55l3.25,6.13v-6.13h.93v7.5Z"/>
    <path class="st0" d="M62.25,208.81h-2.96v-.77h.98v-5.97h-.98v-.77h2.96v.77h-.98v5.97h.98v.77Z"/>
    <path class="st0" d="M69.87,201.31l-2.73,7.5h-1.33l-2.73-7.5h1.07l2.35,6.6,2.35-6.6h1.02Z"/>
    <path class="st0" d="M75.95,208.81h-4.94v-7.5h4.94v.89h-3.95v2.06h3.95v.89h-3.95v2.79h3.95v.89Z"/>
    <path class="st0" d="M83.74,208.81h-1.3l-2.51-2.98h-1.41v2.98h-1v-7.5h2.1c.45,0,.83.03,1.13.09s.57.16.82.31c.27.17.48.39.64.65s.23.59.23.99c0,.54-.14.99-.41,1.36s-.65.64-1.12.82l2.82,3.28ZM81.41,203.42c0-.22-.04-.41-.11-.57s-.2-.31-.38-.42c-.14-.1-.32-.17-.51-.2s-.43-.06-.7-.06h-1.17v2.83h1.01c.32,0,.59-.03.83-.08s.44-.16.6-.31c.15-.14.26-.3.34-.49s.11-.42.11-.7Z"/>
    <path class="st0" d="M90.16,206.67c0,.29-.07.58-.2.87s-.33.53-.57.73c-.27.22-.58.38-.94.5s-.79.18-1.29.18c-.54,0-1.03-.05-1.46-.15s-.87-.25-1.32-.45v-1.25h.07c.38.32.82.56,1.32.73s.96.26,1.4.26c.62,0,1.1-.12,1.44-.35s.52-.54.52-.93c0-.33-.08-.58-.24-.74s-.41-.28-.74-.37c-.25-.07-.52-.12-.82-.17s-.61-.1-.93-.17c-.67-.14-1.16-.38-1.48-.72s-.48-.79-.48-1.33c0-.63.27-1.14.8-1.54s1.2-.6,2.02-.6c.53,0,1.01.05,1.45.15s.83.23,1.17.37v1.18h-.07c-.29-.24-.66-.44-1.13-.6s-.94-.24-1.43-.24c-.53,0-.96.11-1.29.33s-.49.51-.49.86c0,.31.08.56.24.74s.45.31.85.41c.22.05.52.1.92.17s.73.14,1.01.21c.56.15.98.37,1.26.67s.42.72.42,1.25Z"/>
    <path class="st0" d="M94.41,208.81h-2.96v-.77h.98v-5.97h-.98v-.77h2.96v.77h-.98v5.97h.98v.77Z"/>
    <path class="st0" d="M101.46,202.19h-2.68v6.62h-1v-6.62h-2.68v-.89h6.36v.89Z"/>
    <path class="st0" d="M107.78,201.31l-2.64,4.21v3.29h-1v-3.19l-2.65-4.32h1.1l2.05,3.36,2.07-3.36h1.06Z"/>
    <path class="st0" d="M118.04,202.17c.31.34.54.75.7,1.23s.24,1.04.24,1.66-.08,1.17-.25,1.66-.4.9-.7,1.22c-.31.34-.67.59-1.1.77s-.9.26-1.44.26-1.01-.09-1.44-.26-.8-.43-1.1-.76-.54-.74-.7-1.22-.24-1.04-.24-1.66.08-1.16.24-1.65.4-.9.71-1.25c.3-.33.66-.58,1.1-.76s.92-.26,1.43-.26,1.02.09,1.45.26.79.43,1.09.75ZM117.95,205.06c0-.97-.22-1.73-.66-2.26s-1.03-.79-1.79-.79-1.36.26-1.8.79-.65,1.28-.65,2.26.22,1.74.67,2.26,1.04.78,1.78.78,1.34-.26,1.78-.78.66-1.28.66-2.26Z"/>
    <path class="st0" d="M125.36,202.19h-3.79v2.12h3.26v.89h-3.26v3.61h-1v-7.5h4.79v.89Z"/>
    <path class="st0" d="M135.93,208.27c-.18.08-.35.16-.5.23s-.35.14-.59.22c-.2.06-.43.12-.67.16s-.5.07-.79.07c-.54,0-1.04-.08-1.48-.23s-.83-.39-1.16-.72c-.32-.32-.57-.72-.76-1.22s-.27-1.06-.27-1.72c0-.62.09-1.17.26-1.66s.43-.9.76-1.23c.32-.33.7-.57,1.16-.75s.95-.26,1.5-.26c.4,0,.81.05,1.21.15s.85.27,1.34.51v1.18h-.08c-.41-.35-.82-.6-1.23-.76s-.84-.24-1.31-.24c-.38,0-.72.06-1.03.18s-.58.31-.81.57c-.23.25-.41.57-.54.96s-.19.83-.19,1.33.07.98.21,1.36.33.69.55.93c.24.25.51.43.82.55s.65.18,1,.18c.48,0,.93-.08,1.35-.25s.81-.41,1.18-.74h.07v1.17Z"/>
    <path class="st0" d="M143.08,208.81h-1v-3.67h-3.74v3.67h-1v-7.5h1v2.94h3.74v-2.94h1v7.5Z"/>
    <path class="st0" d="M149.84,208.81h-4.75v-7.5h1v6.62h3.75v.89Z"/>
    <path class="st0" d="M155.78,208.81h-4.94v-7.5h4.94v.89h-3.95v2.06h3.95v.89h-3.95v2.79h3.95v.89Z"/>
    <path class="st0" d="M162.16,202.19h-3.79v2.12h3.26v.89h-3.26v3.61h-1v-7.5h4.79v.89Z"/>
  </g>
</svg>