<?xml version="1.0" encoding="UTF-8"?>
<svg id="Layer_2" data-name="Layer 2" xmlns="http://www.w3.org/2000/svg" viewBox="0 0 95.66 90.24">
  <circle cx="45.12" cy="45.12" r="43" fill="#fff"/>
  <circle cx="45.12" cy="45.12" r="31" fill="none" stroke="#ff6b00" stroke-miterlimit="10"/>
  <circle cx="45.12" cy="45.12" r="43" fill="none" stroke="#063" stroke-miterlimit="10"/>
  <circle cx="45.12" cy="45.12" r="41" fill="none" stroke="#063" stroke-miterlimit="10" stroke-width=".5"/>
  <text transform="translate(7.12 47.16) rotate(84.09)" fill="#063" font-family="FranklinGothic-Medium, &apos;Franklin Gothic Medium&apos;" font-size="6" font-weight="500"><tspan x="0" y="0">H</tspan></text>
  <text transform="translate(7.54 51.07) rotate(78.33)" fill="#063" font-family="FranklinGothic-Medium, &apos;Franklin Gothic Medium&apos;" font-size="6" font-weight="500"><tspan x="0" y="0">A</tspan></text>
  <text transform="translate(8.3 54.71) rotate(72.84)" fill="#063" font-family="FranklinGothic-Medium, &apos;Franklin Gothic Medium&apos;" font-size="6" font-weight="500"><tspan x="0" y="0">S</tspan></text>
  <text transform="translate(9.34 58.07) rotate(67.5)" fill="#063" font-family="FranklinGothic-Medium, &apos;Franklin Gothic Medium&apos;" font-size="6" font-weight="500"><tspan x="0" y="0">S</tspan></text>
  <text transform="translate(10.7 61.28) rotate(63.61)" fill="#063" font-family="FranklinGothic-Medium, &apos;Franklin Gothic Medium&apos;" font-size="6" font-weight="500"><tspan x="0" y="0">I</tspan></text>
  <text transform="translate(11.41 62.77) rotate(59.57)" fill="#063" font-family="FranklinGothic-Medium, &apos;Franklin Gothic Medium&apos;" font-size="6" font-weight="500"><tspan x="0" y="0">B</tspan></text>
  <text transform="translate(13.3 65.99) rotate(53.97)" fill="#063" font-family="FranklinGothic-Medium, &apos;Franklin Gothic Medium&apos;" font-size="6" font-weight="500"><tspan x="0" y="0">A</tspan></text>
  <text transform="translate(15.48 68.92) rotate(50.07)" fill="#063" font-family="FranklinGothic-Medium, &apos;Franklin Gothic Medium&apos;" font-size="6" font-weight="500"><tspan x="0" y="0"> </tspan></text>
  <text transform="translate(16.45 70.13) rotate(46.14)" fill="#063" font-family="FranklinGothic-Medium, &apos;Franklin Gothic Medium&apos;" font-size="6" font-weight="500"><tspan x="0" y="0">B</tspan></text>
  <text transform="translate(19.04 72.81) rotate(40.89)" fill="#063" font-family="FranklinGothic-Medium, &apos;Franklin Gothic Medium&apos;" font-size="6" font-weight="500"><tspan x="0" y="0">E</tspan></text>
  <text transform="translate(21.56 75) rotate(35.36)" fill="#063" font-family="FranklinGothic-Medium, &apos;Franklin Gothic Medium&apos;" font-size="6" font-weight="500"><tspan x="0" y="0">N</tspan></text>
  <text transform="translate(24.82 77.31) rotate(29.54)" fill="#063" font-family="FranklinGothic-Medium, &apos;Franklin Gothic Medium&apos;" font-size="6" font-weight="500"><tspan x="0" y="0">B</tspan></text>
  <text transform="translate(28.09 79.16) rotate(23.7)" fill="#063" font-family="FranklinGothic-Medium, &apos;Franklin Gothic Medium&apos;" font-size="6" font-weight="500"><tspan x="0" y="0">O</tspan></text>
  <text transform="translate(31.74 80.74) rotate(17.89)" fill="#063" font-family="FranklinGothic-Medium, &apos;Franklin Gothic Medium&apos;" font-size="6" font-weight="500"><tspan x="0" y="0">U</tspan></text>
  <text transform="translate(35.13 81.84) rotate(12.45)" fill="#063" font-family="FranklinGothic-Medium, &apos;Franklin Gothic Medium&apos;" font-size="6" font-weight="500"><tspan x="0" y="0">A</tspan></text>
  <text transform="translate(38.75 82.62) rotate(7.32)" fill="#063" font-family="FranklinGothic-Medium, &apos;Franklin Gothic Medium&apos;" font-size="6" font-weight="500"><tspan x="0" y="0">L</tspan></text>
  <text transform="translate(41.74 82.98) rotate(3.84)" fill="#063" font-family="FranklinGothic-Medium, &apos;Franklin Gothic Medium&apos;" font-size="6" font-weight="500"><tspan x="0" y="0">I</tspan></text>
  <text transform="translate(43.31 83.09) rotate(1.57)" fill="#063" font-family="FranklinGothic-Medium, &apos;Franklin Gothic Medium&apos;" font-size="6" font-weight="500"><tspan x="0" y="0"> </tspan></text>
  <text transform="translate(44.85 83.16) rotate(-2.24)" fill="#063" font-family="FranklinGothic-Medium, &apos;Franklin Gothic Medium&apos;" font-size="6" font-weight="500"><tspan x="0" y="0">U</tspan></text>
  <text transform="translate(48.54 83.02) rotate(-8.03)" fill="#063" font-family="FranklinGothic-Medium, &apos;Franklin Gothic Medium&apos;" font-size="6" font-weight="500"><tspan x="0" y="0">N</tspan></text>
  <text transform="translate(52.44 82.43) rotate(-12.25)" fill="#063" font-family="FranklinGothic-Medium, &apos;Franklin Gothic Medium&apos;" font-size="6" font-weight="500"><tspan x="0" y="0">I</tspan></text>
  <text transform="translate(54.03 82.11) rotate(-15.96)" fill="#063" font-family="FranklinGothic-Medium, &apos;Franklin Gothic Medium&apos;" font-size="6" font-weight="500"><tspan x="0" y="0">V</tspan></text>
  <text transform="translate(57.23 81.19) rotate(-21.01)" fill="#063" font-family="FranklinGothic-Medium, &apos;Franklin Gothic Medium&apos;" font-size="6" font-weight="500"><tspan x="0" y="0">E</tspan></text>
  <text transform="translate(60.34 80) rotate(-26.52)" fill="#063" font-family="FranklinGothic-Medium, &apos;Franklin Gothic Medium&apos;" font-size="6" font-weight="500"><tspan x="0" y="0">R</tspan></text>
  <text transform="translate(63.87 78.23) rotate(-32.16)" fill="#063" font-family="FranklinGothic-Medium, &apos;Franklin Gothic Medium&apos;" font-size="6" font-weight="500"><tspan x="0" y="0">S</tspan></text>
  <text transform="translate(66.81 76.34) rotate(-36.03)" fill="#063" font-family="FranklinGothic-Medium, &apos;Franklin Gothic Medium&apos;" font-size="6" font-weight="500"><tspan x="0" y="0">I</tspan></text>
  <text transform="translate(68.11 75.42) rotate(-39.41)" fill="#063" font-family="FranklinGothic-Medium, &apos;Franklin Gothic Medium&apos;" font-size="6" font-weight="500"><tspan x="0" y="0">T</tspan></text>
  <text transform="translate(70.61 73.35) rotate(-44.54)" fill="#063" font-family="FranklinGothic-Medium, &apos;Franklin Gothic Medium&apos;" font-size="6" font-weight="500"><tspan x="0" y="0">Y</tspan></text>
  <text transform="translate(72.94 71.02) rotate(-48.17)" fill="#063" font-family="FranklinGothic-Medium, &apos;Franklin Gothic Medium&apos;" font-size="6" font-weight="500"><tspan x="0" y="0"> </tspan></text>
  <text transform="translate(74 69.9) rotate(-52.23)" fill="#063" font-family="FranklinGothic-Medium, &apos;Franklin Gothic Medium&apos;" font-size="6" font-weight="500"><tspan x="0" y="0">O</tspan></text>
  <text transform="translate(76.41 66.74) rotate(-57.61)" fill="#063" font-family="FranklinGothic-Medium, &apos;Franklin Gothic Medium&apos;" font-size="6" font-weight="500"><tspan x="0" y="0">F</tspan></text>
  <text transform="translate(78.04 64.14) rotate(-61.07)" fill="#063" font-family="FranklinGothic-Medium, &apos;Franklin Gothic Medium&apos;" font-size="6" font-weight="500"><tspan x="0" y="0"> </tspan></text>
  <text transform="translate(78.8 62.82) rotate(-64.85)" fill="#063" font-family="FranklinGothic-Medium, &apos;Franklin Gothic Medium&apos;" font-size="6" font-weight="500"><tspan x="0" y="0">C</tspan></text>
  <text transform="translate(80.33 59.58) rotate(-70.57)" fill="#063" font-family="FranklinGothic-Medium, &apos;Franklin Gothic Medium&apos;" font-size="6" font-weight="500"><tspan x="0" y="0">H</tspan></text>
  <text transform="translate(81.61 55.86) rotate(-75.9)" fill="#063" font-family="FranklinGothic-Medium, &apos;Franklin Gothic Medium&apos;" font-size="6" font-weight="500"><tspan x="0" y="0">L</tspan></text>
  <text transform="translate(82.36 52.9) rotate(-80.7)" fill="#063" font-family="FranklinGothic-Medium, &apos;Franklin Gothic Medium&apos;" font-size="6" font-weight="500"><tspan x="0" y="0">E</tspan></text>
  <text transform="translate(82.89 49.64) rotate(-85.53)" fill="#063" font-family="FranklinGothic-Medium, &apos;Franklin Gothic Medium&apos;" font-size="6" font-weight="500"><tspan x="0" y="0">F</tspan></text>
  <polygon points="10.72 44.33 9.15 43.24 7.63 44.39 8.19 42.56 6.62 41.46 8.53 41.43 9.09 39.6 9.71 41.41 11.62 41.37 10.09 42.52 10.72 44.33" fill="#ff6b00"/>
  <polygon points="82.72 44.09 81.15 43 79.63 44.15 80.19 42.32 78.62 41.23 80.53 41.19 81.09 39.37 81.71 41.17 83.62 41.14 82.09 42.29 82.72 44.09" fill="#ff6b00"/>
  <g>
    <path d="M25.07,42.8c0,.14,0,.27.04.4l-.04-.4ZM59.65,69.42c.03.22.21.62-.12.59.03.08.06.16.08.24.04,0,.07,0,.09,0,0,0,.02,0,.02-.01,0,0,0,0,0,0,.14-.13-.05-.6-.09-.8ZM48.72,60.67c.26.11.52.22.78.33,0,0,.01,0,.02,0,.14.06.27.12.41.18.27.12.54.25.81.38.14.06.27.13.41.2.13.07.27.14.4.21.13.07.27.14.4.22.13.07.27.15.4.23.17.09.33.19.49.29.1.06.2.12.3.18.12.07.23.15.35.22.04.02.07.05.11.07.1.07.21.14.31.21.1.07.21.14.31.22.11.08.22.16.33.24.1.07.19.14.29.21t0,0c.1.08.2.15.3.23.04.03.08.06.12.09.09.08.19.15.28.23,0,0,.01,0,.02.02.11.09.21.18.31.27.08.07.15.13.22.2.05.04.1.09.14.13.07.06.13.12.2.19.04.04.09.08.13.13.09.09.18.18.27.27.07.07.13.14.2.21.03.03.06.06.09.1.07.08.14.16.21.24.03.03.05.06.08.09.07.08.14.17.21.25.03.03.05.07.08.1.08.1.17.21.24.32.07.1.14.19.21.29.18.25.35.51.51.78.07.11.13.23.2.35,0,0,0,.02.01.03.05.09.1.18.15.28.04.07.07.14.11.21.04.09.09.18.13.27-1.8-4.28-6.31-7-10.53-8.68ZM36.19,63.12v5.34h.39v-5.64c-.13-.02-.39.26-.39.29ZM33.47,66.91v-5.64h-.39v6.61l.39-.2.39.78v-1.75l-.39.2ZM30.99,30.71c-.19.38-.16.85-.35,1.2-.22.42-.9.61-.86,1.18,1.7-1.82,4.65-2.41,5.05-5.25-1.31.5-3.21,1.59-3.84,2.86ZM32.21,68.27c-.14.36-2,.94-1.65,1.35l1.74.78-.1-2.14ZM59.83,20.07s0,0,0,0c-.27-.03-.18.33-.1.59-.06-.2-.1-.42.17-.38.31.55.55,1.1.74,1.65-.2-.62-.46-1.24-.8-1.86Z" fill="#fff"/>
    <path d="M25.07,42.8c0,.14,0,.27.04.4l-.04-.4ZM59.27,69.39c.09.21.17.41.24.63,0,0,.01,0,.02,0-.08-.21-.17-.42-.26-.63ZM60.63,21.93c1.13,3.54.05,7.14-2.6,9.79,2.7-2.68,3.82-6.23,2.6-9.79Z"/>
    <path d="M59.12,27.07c-.27.05-.25.04-.4-.12-.28-.3-.42-.68-.86-1.04-1.13-.9-4.76-2.62-6.15-2.62-1.44,0-1.17-.1-2.41-.29-.67-.1-1.31.08-2.03-.1-1.43-.36-3.31-2.29-4.72-3.05-.93-.51-1.93-.67-2.79-1.28-1.05.77-2.19.54-3.18.82-1.04.31-2.86,2.03-3.89,2.52-1.48.69-3,1.19-4.61,1.61-.96.25-1.11.71-2.37.06,5.89-5.6,14.55-8.27,22.64-7.38,4.15.46,8.04,1.82,11.49,3.87-.27-.03-.18.33-.1.59.02.06.03.11.04.15,0,0,0,.02,0,.03,0,0,0,.02,0,.03.46,2.42.43,3.95-.67,6.21Z" fill="#063"/>
    <path d="M59.61,70.25c-.03-.08-.05-.16-.08-.24,0,0-.01,0-.02,0-.07-.21-.15-.42-.24-.63,0-.02-.01-.03-.02-.04-.04-.09-.08-.18-.13-.27-.03-.07-.07-.14-.11-.21-.05-.1-.1-.19-.15-.28,0,0,0-.02-.01-.03-.06-.12-.13-.23-.2-.35-.16-.26-.33-.52-.51-.78-.07-.1-.14-.19-.21-.29-.08-.11-.16-.21-.24-.32-.03-.03-.05-.07-.08-.1-.07-.09-.14-.17-.21-.25-.03-.03-.05-.06-.08-.09-.07-.08-.14-.16-.21-.24-.03-.03-.06-.07-.09-.1-.07-.07-.13-.14-.2-.21-.09-.09-.18-.18-.27-.27-.04-.04-.09-.09-.13-.13-.06-.06-.13-.13-.2-.19-.05-.04-.09-.09-.14-.13-.07-.07-.15-.13-.22-.2-.1-.09-.21-.18-.31-.27,0,0-.01-.01-.02-.02-.09-.08-.18-.15-.28-.23-.04-.03-.08-.06-.12-.09-.1-.08-.2-.16-.3-.23t0,0c-.1-.07-.19-.14-.29-.21-.11-.08-.22-.16-.33-.24-.1-.08-.21-.15-.31-.22-.1-.07-.21-.14-.31-.21-.03-.02-.07-.05-.11-.07-.12-.07-.23-.15-.35-.22-.1-.06-.2-.12-.3-.18-.16-.1-.33-.2-.49-.29-.13-.08-.26-.15-.4-.23s-.27-.15-.4-.22-.27-.14-.4-.21c-.14-.07-.27-.14-.41-.2-.27-.13-.54-.26-.81-.38-.14-.06-.27-.12-.41-.18,0,0-.01,0-.02,0-.26-.11-.52-.22-.78-.33-.14-.05-.27-.11-.41-.16-.14-.05-.28-.11-.42-.16-6.86-2.54-16.89-2.06-17.92-11.42-.22-1.96.22-4.25-1.29-5.9-.9-.99-3.38-2.06-3.4.06l.4.31c-.16-.02-.3-.02-.38.15-.31.64-.26,3.21-.2,4.04.03.39-.15.56.39.48-.83-2.08,1.05-3.7,2.33-5.05.36,2.51-1.09,3.86-2.53,5.55.31,1.72.72,3.75,1.95,5.04-.63.49-1.31-1.43-1.51-1.99-.27-.75-.38-1.97-.74-2.57-.27-.45-.88-.28-1.39-.55-1.21-.65-1.93-2.8-1.81-4.12.99.15,1.7.95,2.3,1.68l.81,2.01c-.2-.94.28-3.78-.25-4.41-.17-.21-.66-.28-.92-.59-.95-1.11-.85-3.32-.77-4.71.37-.45,1.97,2.4,1.93,2.83l.16,1.63c.02-1.2,1.07-2.8.79-3.74-.09-.3-.52-.51-.7-.86-.69-1.39.08-3.3.35-4.72.55-.06.68.6.87.98l.49,3.1c0-.68.9-1.52.98-2.05.08-.57-.31-.88-.38-1.35-.22-1.45.59-3.8,1.74-4.75.46,1.77.2,3.26-.58,4.86,1.64-1.18,2.89-1.99,5.05-1.46-.83.93-1.98,1.83-3.27,1.93-.47.04-1.36-.26-1.74-.04-.13.08-1.5,2.56-1.4,2.68,1.06-1,2.4-1.73,3.88-1.85-.71,1.28-1.48,2.37-2.87,2.96-1.47.62-2.2.07-2.37,2.39,2.63-2.58,6.37-3.24,9.47-1.02,1.55,1.11,1.05,1.51,1.6,3.06.78,2.19,2.9,4.53,5.45,4.17l-1.62-.61c-2.44-1.33-4.3-4.06-2.75-6.78,3.52-6.18,13.69-5.3,19.05-10.29.31-.29,1.63-1.54,1.37-1.95-.32-.49-1.67-1.04-2.16-1.35-.17-.1-.19-.45-.43-.58-.45-.25-1.02-.01-1.35-.15-2.81-1.13-3.8-.91-6.66-1.29-1.08-.15-2.7-1.27-3.79-1.67l.1.97-1.09-.76-.78.56-.78-.56-.75.57c-.66-.76-1.05-.92-1.93-.37l-.82-1.16-1.43.37.29-.78c-1.12.55-2.52.65-3.61,1.25-.97.54-1.97,1.18-3.09,1.57-.49.17-2.47.79-2.87.84-.72.08-1.57-.27-2.12-.72l-.25.06c-14.74,14.14-10.34,39.35,8.48,47.5,9.21,3.99,18.76,2.92,26.3-1.5-.03,0-.05.01-.09,0ZM47.63,26.8l-.66-2.26c1.84,2.44,2.33,6.09.87,8.83l-3.49,1.07c2.21-1.97,3.65-4.56,3.28-7.65ZM30.64,31.92c.19-.36.16-.83.35-1.2.63-1.28,2.53-2.36,3.84-2.86-.4,2.83-3.35,3.43-5.05,5.25-.04-.57.64-.76.86-1.18ZM30.56,69.62c-.35-.41,1.51-.99,1.65-1.35l.1,2.14-1.74-.78ZM36.52,69.08c-.59.43-2.4,2.15-2.9,2.08-.27-.04-.58-.39-.92-.36v-7.97l-.58.39-.02-2.12-2.31-.41v8.16l-.97-.49v-8.06h-.39v7.58h-.39v-5.25c-.13-.02-.39.26-.39.29v3.79h-.19v-6.61l-2.72-.58v5.25c-1.74-1.05-.68-3.7-.98-5.43l-1.35-.2v2.72c-.98-.7-1.41-1.77-.97-2.91-1.71.04-1.63-1.92-2.52-3.02l.29-.09c10.21,2.74,20.55,5.09,30.61,8.36.04.36-.41.16-.62.14-.72-.08-1.45-.36-2.19-.35-3.39.04-7.77,3.16-10.46,5.1ZM59.02,70.02l-.68-.2.17.36-2.6,1.39-.87-1.36.39,1.55-2.01.57c-.85-1.31-1.41-2.81-2.38-4.05-1.34-1.71-3.25-3.05-5.52-2.93.03-.28.85-.33,1.09-.36,3.2-.43,5.31.59,7.26,3.08-.65-1.56-2.06-2.85-3.69-3.31-.04-.36.4-.17.59-.1.35.12.82.4,1.16.59.84.45,2.06,1.59,2.62,1.85.09.04.32.05.29-.1-3.23-2.85-7.75-4.2-11.81-5.48-8.01-2.53-16.23-4.4-24.28-6.8l-.83-1.81c5.76,1.68,11.54,3.35,17.25,5.19,6.2,2,14.24,4.06,19.37,8.03,1.47,1.14,2.77,2.84,4.57,3.5l-.1.39Z" fill="#063"/>
    <path d="M74.09,43.68c-.42-9.93-6.07-18.72-14.26-23.61.34.61.61,1.23.8,1.86,1.22,3.56.1,7.11-2.6,9.79-.2.2-.41.4-.63.59l-2.17,1.57c1.94-.67,3.69-2.28,4.95-3.88.07.63-.8,1.67-1.27,2.23-1.26,1.5-2.87,2.42-4.46,3.5.14.28.51,0,.69-.09,1.48-.65,2.96-1.54,4.07-2.73.32.19-.06.43-.19.58-.7.82-1.55,1.5-2.24,2.33l2.43-1.75c.25.47-.51,1.11-.87,1.46-1.35,1.31-3.38,2.46-5.25,2.82-.06.33.48.22.66.18.94-.19,2-.81,2.89-1.19l2.46-1.71c.38,1.67-.96,2.07-1.74,3.2l.87.1c.53.59-.95.58-1.07.69-.51.45-.46,3.12-.37,3.86.15,1.16,1.73,3.66.32,4.24-1.5.62-2.91-.28-2.76,2.49l-1.28.18c.85,2.16-.96,1.4-1.32,1.78-.35.38-.34,1.74-.54,2.28-.11.3-.91,1.12-1.15,1.18-.65.16-2.65,0-3.5,0-.03,0-.31.26-.29.39,3.38-.15,7.04.79,9.33,3.4-.63.09-1.29-.48-1.89-.64-.19-.05-.68-.2-.63.15,1.9.36,3.26,1.93,4.47,3.3l-3.84-2.29-.63.15c3.93,1.31,6.18,5.29,6.55,9.29,0,0,0,.02,0,.03.03.2.23.67.09.8,8.8-5.17,14.85-14.92,14.36-26.54ZM67.67,46.51c-.97-.33-1.21-1.79-1.36-2.72.37-.41,1.62,2.36,1.36,2.72ZM61.51,39.47c.23-.65,1.74-3.61,2.14-3.98.31-.29.93-.78,1.32-1.11.27-.23,1.18-1.01,1.34-.31-1.26.19-2.34,2.35-2.86,3.46-1.45,3.11-1.34,8.17-1.23,11.61.05,1.7.83,2.51-1.35,3.39-.04-4.17-.8-9.07.64-13.06ZM68.22,54.35c-.18.25-1.46,1.4-1.73,1.57-1.3.85-2.15.17-3.49-.09-.45,2.12-2.67,4.74-5.05,4.08-.15-.66.9-.31,1.41-.43,1.27-.29,2.46-1.39,2.48-2.77.02-.83-.67-2.83-.54-3.48.03-.13.9-1.04,1.02-1.09.51-.22.64,1.61.74,1.88.25.62,3.44,1.82,4.01.73.05-.5-.45,0-.97-.17-.41-.13-1.52-1.02-1.72-1.4-.7-1.35.93-2.61,1.61-3.59.17-.24.19-.74.43-1.1.25-.37.87-.59,1.14-1.01l1.26,4.37c.11.86-.09,1.81-.61,2.5ZM68.55,35.82c-.34.78-.88,3.18-.88,3.98v4.76c-.29-.09-.55-.58-.64-.84-.79-2.5-.82-5.3.57-7.66l2.01-1.89c-.36.63-.76.94-1.06,1.66Z" fill="#ff6b00"/>
    <path d="M67.09,52.92c-1.61-.58-2.08-1.54-.87-2.91l.87,2.91Z" fill="#ff6b00"/>
    <path d="M34.83,27.85c-.4,2.83-3.35,3.43-5.05,5.25-.04-.57.64-.76.86-1.18.19-.36.16-.83.35-1.2.63-1.28,2.53-2.36,3.84-2.86Z" fill="#fff"/>
    <path d="M32.3,70.41l-1.74-.78c-.35-.41,1.51-.99,1.65-1.35l.1,2.14Z" fill="#fff"/>
    <path d="M35.8,66.42c-.25.31-1.17.63-1.55.88v-5.83l1.73.41c-.12.93.31,3.96-.18,4.54Z" fill="#063"/>
    <path d="M39.3,63.02v3.69c-.45.03-.34.07-.39-.29-.09-.7.07-1.52,0-2.24l-.38,1.07-1.75.68v-3.89c.78.29,2.22.05,2.14,1.17l.38-.2Z" fill="#063"/>
    <path d="M43.77,64.38l-.2-.58-1.54.2v1.15c-.73.19-.25-.76-.4-.97l-2.13.58v-2.14c.84.23,1.74-.01,1.55,1.17l.39-.78.21.37c.77-.18,2.76-.2,2.12.99Z" fill="#063"/>
    <polygon points="33.86 66.71 33.86 68.46 33.47 67.68 33.08 67.88 33.08 61.27 33.47 61.27 33.47 66.91 33.86 66.71" fill="#063"/>
    <path d="M36.58,62.83v5.64h-.39v-5.34s.26-.31.39-.29Z" fill="#063"/>
  </g>
  <text transform="translate(12.14 37.36) rotate(-72.3)" fill="#063" font-family="Calibri, Calibri" font-size="8"><tspan x="0" y="0">ﻒ</tspan></text>
  <text transform="translate(14.57 30.41) rotate(-64.04)" fill="#063" font-family="Calibri, Calibri" font-size="8"><tspan x="0" y="0">ﻠ</tspan></text>
  <text transform="translate(15.5 28.31) rotate(-57.24)" fill="#063" font-family="Calibri, Calibri" font-size="8"><tspan x="0" y="0">ﺸ</tspan></text>
  <text transform="translate(18.65 23.63) rotate(-50.68)" fill="#063" font-family="Calibri, Calibri" font-size="8"><tspan x="0" y="0">ﻟ</tspan></text>
  <text transform="translate(20.06 21.94) rotate(-47.17)" fill="#063" font-family="Calibri, Calibri" font-size="8"><tspan x="0" y="0">ﺍ</tspan></text>
  <text transform="translate(21.36 20.54) rotate(-43.67)" fill="#063" font-family="Calibri, Calibri" font-size="8"><tspan x="0" y="0"> </tspan></text>
  <text transform="translate(22.83 19.06) rotate(-37.77)" fill="#063" font-family="Calibri, Calibri" font-size="8"><tspan x="0" y="0">ﻲ</tspan></text>
  <text transform="translate(26.73 16.14) rotate(-31.62)" fill="#063" font-family="Calibri, Calibri" font-size="8"><tspan x="0" y="0">ﻠ</tspan></text>
  <text transform="translate(28.7 14.89) rotate(-26.06)" fill="#063" font-family="Calibri, Calibri" font-size="8"><tspan x="0" y="0">ﻋ</tspan></text>
  <text transform="translate(32.41 13.1) rotate(-19.02)" fill="#063" font-family="Calibri, Calibri" font-size="8"><tspan x="0" y="0">ﻮ</tspan></text>
  <text transform="translate(36.3 11.82) rotate(-13.55)" fill="#063" font-family="Calibri, Calibri" font-size="8"><tspan x="0" y="0">ﺑ</tspan></text>
  <text transform="translate(38.58 11.28) rotate(-9.64)" fill="#063" font-family="Calibri, Calibri" font-size="8"><tspan x="0" y="0"> </tspan></text>
  <text transform="translate(40.63 10.88) rotate(-3.72)" fill="#063" font-family="Calibri, Calibri" font-size="8"><tspan x="0" y="0">ﻦ</tspan></text>
  <text transform="translate(45.49 10.65) rotate(2.26)" fill="#063" font-family="Calibri, Calibri" font-size="8"><tspan x="0" y="0">ﺑ</tspan></text>
  <text transform="translate(47.8 10.75) rotate(6.07)" fill="#063" font-family="Calibri, Calibri" font-size="8"><tspan x="0" y="0"> </tspan></text>
  <text transform="translate(49.93 10.96) rotate(11.15)" fill="#063" font-family="Calibri, Calibri" font-size="8"><tspan x="0" y="0">ﺔ</tspan></text>
  <text transform="translate(53.63 11.73) rotate(16.69)" fill="#063" font-family="Calibri, Calibri" font-size="8"><tspan x="0" y="0">ﺒ</tspan></text>
  <text transform="translate(56.18 12.51) rotate(21.28)" fill="#063" font-family="Calibri, Calibri" font-size="8"><tspan x="0" y="0">ﻴ</tspan></text>
  <text transform="translate(58.59 13.36) rotate(28.31)" fill="#063" font-family="Calibri, Calibri" font-size="8"><tspan x="0" y="0">ﺴ</tspan></text>
  <text transform="translate(63.44 16.02) rotate(37.23)" fill="#063" font-family="Calibri, Calibri" font-size="8"><tspan x="0" y="0">ﺣ</tspan></text>
  <text transform="translate(67.4 19.14) rotate(43.3)" fill="#063" font-family="Calibri, Calibri" font-size="8"><tspan x="0" y="0"> </tspan></text>
  <text transform="translate(68.97 20.59) rotate(48.34)" fill="#063" font-family="Calibri, Calibri" font-size="8"><tspan x="0" y="0">ﺔ</tspan></text>
  <text transform="translate(71.44 23.39) rotate(54.77)" fill="#063" font-family="Calibri, Calibri" font-size="8"><tspan x="0" y="0">ﻌ</tspan></text>
  <text transform="translate(73.63 26.52) rotate(60.98)" fill="#063" font-family="Calibri, Calibri" font-size="8"><tspan x="0" y="0">ﻣ</tspan></text>
  <text transform="translate(75.3 29.62) rotate(65.91)" fill="#063" font-family="Calibri, Calibri" font-size="8"><tspan x="0" y="0">ﺎ</tspan></text>
  <text transform="translate(76.23 31.55) rotate(72.09)" fill="#063" font-family="Calibri, Calibri" font-size="8"><tspan x="0" y="0">ﺟ</tspan></text>
</svg>