<?xml version="1.0" encoding="UTF-8"?>
<svg id="Layer_3" data-name="Layer 3" xmlns="http://www.w3.org/2000/svg" viewBox="0 0 245.32 245.32">
  <g>
    <circle cx="122.66" cy="122.66" r="122.16" fill="#fff"/>
    <circle cx="122.66" cy="122.66" r="88.07" fill="none" stroke="#ff6b00" stroke-miterlimit="10"/>
    <circle cx="122.66" cy="122.66" r="122.16" fill="none" stroke="#063" stroke-miterlimit="10"/>
    <circle cx="122.66" cy="122.66" r="116.48" fill="none" stroke="#063" stroke-miterlimit="10" stroke-width=".5"/>
    <text transform="translate(14.72 128.42) rotate(84.12)" fill="#063" font-family="FranklinGothic-Medium, &apos;Franklin Gothic Medium&apos;" font-size="17.05" font-weight="500"><tspan x="0" y="0">H</tspan></text>
    <text transform="translate(15.9 139.59) rotate(78.32)" fill="#063" font-family="FranklinGothic-Medium, &apos;Franklin Gothic Medium&apos;" font-size="17.05" font-weight="500"><tspan x="0" y="0">A</tspan></text>
    <text transform="translate(18.07 149.94) rotate(72.82)" fill="#063" font-family="FranklinGothic-Medium, &apos;Franklin Gothic Medium&apos;" font-size="17.05" font-weight="500"><tspan x="0" y="0">S</tspan></text>
    <text transform="translate(21.03 159.49) rotate(67.48)" fill="#063" font-family="FranklinGothic-Medium, &apos;Franklin Gothic Medium&apos;" font-size="17.05" font-weight="500"><tspan x="0" y="0">S</tspan></text>
    <text transform="translate(24.88 168.54) rotate(63.62)" fill="#063" font-family="FranklinGothic-Medium, &apos;Franklin Gothic Medium&apos;" font-size="17.05" font-weight="500"><tspan x="0" y="0">I</tspan></text>
    <text transform="translate(26.87 172.77) rotate(59.59)" fill="#063" font-family="FranklinGothic-Medium, &apos;Franklin Gothic Medium&apos;" font-size="17.05" font-weight="500"><tspan x="0" y="0">B</tspan></text>
    <text transform="translate(32.28 181.95) rotate(53.97)" fill="#063" font-family="FranklinGothic-Medium, &apos;Franklin Gothic Medium&apos;" font-size="17.05" font-weight="500"><tspan x="0" y="0">A</tspan></text>
    <text transform="translate(38.47 190.28) rotate(50.07)" fill="#063" font-family="FranklinGothic-Medium, &apos;Franklin Gothic Medium&apos;" font-size="17.05" font-weight="500"><tspan x="0" y="0"> </tspan></text>
    <text transform="translate(41.22 193.73) rotate(46.14)" fill="#063" font-family="FranklinGothic-Medium, &apos;Franklin Gothic Medium&apos;" font-size="17.05" font-weight="500"><tspan x="0" y="0">B</tspan></text>
    <text transform="translate(48.6 201.35) rotate(40.87)" fill="#063" font-family="FranklinGothic-Medium, &apos;Franklin Gothic Medium&apos;" font-size="17.05" font-weight="500"><tspan x="0" y="0">E</tspan></text>
    <text transform="translate(55.7 207.53) rotate(35.39)" fill="#063" font-family="FranklinGothic-Medium, &apos;Franklin Gothic Medium&apos;" font-size="17.05" font-weight="500"><tspan x="0" y="0">N</tspan></text>
    <text transform="translate(65 214.1) rotate(29.54)" fill="#063" font-family="FranklinGothic-Medium, &apos;Franklin Gothic Medium&apos;" font-size="17.05" font-weight="500"><tspan x="0" y="0">B</tspan></text>
    <text transform="translate(74.28 219.36) rotate(23.7)" fill="#063" font-family="FranklinGothic-Medium, &apos;Franklin Gothic Medium&apos;" font-size="17.05" font-weight="500"><tspan x="0" y="0">O</tspan></text>
    <text transform="translate(84.64 223.86) rotate(17.9)" fill="#063" font-family="FranklinGothic-Medium, &apos;Franklin Gothic Medium&apos;" font-size="17.05" font-weight="500"><tspan x="0" y="0">U</tspan></text>
    <text transform="translate(94.28 226.98) rotate(12.45)" fill="#063" font-family="FranklinGothic-Medium, &apos;Franklin Gothic Medium&apos;" font-size="17.05" font-weight="500"><tspan x="0" y="0">A</tspan></text>
    <text transform="translate(104.57 229.2) rotate(7.32)" fill="#063" font-family="FranklinGothic-Medium, &apos;Franklin Gothic Medium&apos;" font-size="17.05" font-weight="500"><tspan x="0" y="0">L</tspan></text>
    <text transform="translate(113.07 230.23) rotate(3.84)" fill="#063" font-family="FranklinGothic-Medium, &apos;Franklin Gothic Medium&apos;" font-size="17.05" font-weight="500"><tspan x="0" y="0">I</tspan></text>
    <text transform="translate(117.57 230.53) rotate(1.55)" fill="#063" font-family="FranklinGothic-Medium, &apos;Franklin Gothic Medium&apos;" font-size="17.05" font-weight="500"><tspan x="0" y="0"> </tspan></text>
    <text transform="translate(121.93 230.74) rotate(-2.26)" fill="#063" font-family="FranklinGothic-Medium, &apos;Franklin Gothic Medium&apos;" font-size="17.05" font-weight="500"><tspan x="0" y="0">U</tspan></text>
    <text transform="translate(132.34 230.34) rotate(-8)" fill="#063" font-family="FranklinGothic-Medium, &apos;Franklin Gothic Medium&apos;" font-size="17.05" font-weight="500"><tspan x="0" y="0">N</tspan></text>
    <text transform="translate(143.46 228.65) rotate(-12.25)" fill="#063" font-family="FranklinGothic-Medium, &apos;Franklin Gothic Medium&apos;" font-size="17.05" font-weight="500"><tspan x="0" y="0">I</tspan></text>
    <text transform="translate(148.01 227.73) rotate(-15.98)" fill="#063" font-family="FranklinGothic-Medium, &apos;Franklin Gothic Medium&apos;" font-size="17.05" font-weight="500"><tspan x="0" y="0">V</tspan></text>
    <text transform="translate(157.08 225.13) rotate(-21)" fill="#063" font-family="FranklinGothic-Medium, &apos;Franklin Gothic Medium&apos;" font-size="17.05" font-weight="500"><tspan x="0" y="0">E</tspan></text>
    <text transform="translate(165.92 221.76) rotate(-26.52)" fill="#063" font-family="FranklinGothic-Medium, &apos;Franklin Gothic Medium&apos;" font-size="17.05" font-weight="500"><tspan x="0" y="0">R</tspan></text>
    <text transform="translate(175.95 216.71) rotate(-32.17)" fill="#063" font-family="FranklinGothic-Medium, &apos;Franklin Gothic Medium&apos;" font-size="17.05" font-weight="500"><tspan x="0" y="0">S</tspan></text>
    <text transform="translate(184.23 211.39) rotate(-36.01)" fill="#063" font-family="FranklinGothic-Medium, &apos;Franklin Gothic Medium&apos;" font-size="17.05" font-weight="500"><tspan x="0" y="0">I</tspan></text>
    <text transform="translate(187.99 208.73) rotate(-39.41)" fill="#063" font-family="FranklinGothic-Medium, &apos;Franklin Gothic Medium&apos;" font-size="17.05" font-weight="500"><tspan x="0" y="0">T</tspan></text>
    <text transform="translate(195.09 202.87) rotate(-44.54)" fill="#063" font-family="FranklinGothic-Medium, &apos;Franklin Gothic Medium&apos;" font-size="17.05" font-weight="500"><tspan x="0" y="0">Y</tspan></text>
    <text transform="translate(201.69 196.26) rotate(-48.15)" fill="#063" font-family="FranklinGothic-Medium, &apos;Franklin Gothic Medium&apos;" font-size="17.05" font-weight="500"><tspan x="0" y="0"> </tspan></text>
    <text transform="translate(204.73 193.04) rotate(-52.26)" fill="#063" font-family="FranklinGothic-Medium, &apos;Franklin Gothic Medium&apos;" font-size="17.05" font-weight="500"><tspan x="0" y="0">O</tspan></text>
    <text transform="translate(211.55 184.12) rotate(-57.58)" fill="#063" font-family="FranklinGothic-Medium, &apos;Franklin Gothic Medium&apos;" font-size="17.05" font-weight="500"><tspan x="0" y="0">F</tspan></text>
    <text transform="translate(216.16 176.73) rotate(-61.04)" fill="#063" font-family="FranklinGothic-Medium, &apos;Franklin Gothic Medium&apos;" font-size="17.05" font-weight="500"><tspan x="0" y="0"> </tspan></text>
    <text transform="translate(218.36 172.94) rotate(-64.86)" fill="#063" font-family="FranklinGothic-Medium, &apos;Franklin Gothic Medium&apos;" font-size="17.05" font-weight="500"><tspan x="0" y="0">C</tspan></text>
    <text transform="translate(222.69 163.73) rotate(-70.58)" fill="#063" font-family="FranklinGothic-Medium, &apos;Franklin Gothic Medium&apos;" font-size="17.05" font-weight="500"><tspan x="0" y="0">H</tspan></text>
    <text transform="translate(226.34 153.17) rotate(-75.9)" fill="#063" font-family="FranklinGothic-Medium, &apos;Franklin Gothic Medium&apos;" font-size="17.05" font-weight="500"><tspan x="0" y="0">L</tspan></text>
    <text transform="translate(228.47 144.72) rotate(-80.72)" fill="#063" font-family="FranklinGothic-Medium, &apos;Franklin Gothic Medium&apos;" font-size="17.05" font-weight="500"><tspan x="0" y="0">E</tspan></text>
    <text transform="translate(229.96 135.46) rotate(-85.55)" fill="#063" font-family="FranklinGothic-Medium, &apos;Franklin Gothic Medium&apos;" font-size="17.05" font-weight="500"><tspan x="0" y="0">F</tspan></text>
    <polygon points="229.47 119.74 225.02 116.63 220.69 119.9 222.27 114.71 217.83 111.6 223.25 111.5 224.84 106.31 226.61 111.44 232.03 111.34 227.7 114.61 229.47 119.74" fill="#ff6b00"/>
    <g>
      <path d="M65.71,116.07c0,.4.03.78.12,1.14l-.12-1.14ZM163.94,191.7c.09.62.59,1.75-.35,1.68.08.22.16.45.24.67.11.01.19,0,.26-.03.02-.01.04-.02.06-.03.01,0,.02-.01.03-.02.41-.36-.15-1.71-.24-2.27ZM132.9,166.82c.74.3,1.48.61,2.22.93.02.01.03.02.05.02.39.17.77.34,1.15.51.77.35,1.53.71,2.3,1.09.39.18.77.38,1.15.57.38.19.76.39,1.14.6.38.2.76.4,1.14.62.38.21.76.42,1.13.64.47.26.94.54,1.4.82.28.17.56.34.84.52.33.2.66.42.99.63.1.07.21.14.31.2.3.19.59.39.88.6.3.2.6.4.89.62.32.22.63.45.94.68.28.2.55.4.82.61t.01.01c.28.22.56.44.84.66.12.09.23.18.33.26.26.22.53.43.79.65.02.01.03.03.06.04.3.26.6.51.89.77.22.19.43.38.63.57.14.12.27.25.4.38.19.18.38.35.56.54.12.12.24.24.36.36.26.25.52.51.77.78.19.2.38.4.56.6.08.09.17.18.25.28.2.22.4.44.6.67.07.08.15.17.22.25.2.24.4.47.6.72.08.09.15.19.23.28.24.3.47.6.7.91.2.27.41.55.6.82.51.72.99,1.46,1.44,2.21.19.33.38.65.56.98.02.03.03.05.04.07.14.26.29.52.42.79.1.2.2.4.3.61.13.25.25.51.36.77-5.12-12.16-17.91-19.87-29.91-24.65ZM97.29,173.79v15.18h1.1v-16.01c-.36-.04-1.1.73-1.1.83ZM89.57,184.55v-16.01h-1.1v18.77l1.1-.56,1.1,2.21v-4.97l-1.1.56ZM82.52,81.73c-.53,1.08-.46,2.4-.99,3.42-.62,1.19-2.54,1.74-2.44,3.35,4.83-5.16,13.21-6.85,14.34-14.9-3.71,1.42-9.11,4.5-10.91,8.13ZM85.98,188.42c-.39,1.03-5.67,2.67-4.69,3.85l4.96,2.22-.27-6.07ZM164.45,51.5s0,0-.01,0c-.77-.09-.5.93-.28,1.67-.16-.57-.27-1.18.47-1.09.87,1.56,1.56,3.13,2.1,4.69-.56-1.77-1.32-3.53-2.28-5.27Z" fill="#fff"/>
      <path d="M65.71,116.07c0,.4.03.78.12,1.14l-.12-1.14ZM162.86,191.6c.25.59.47,1.18.68,1.78.02,0,.03,0,.05,0-.23-.6-.47-1.2-.73-1.78ZM166.73,56.77c3.21,10.05.13,20.28-7.37,27.82,7.66-7.62,10.85-17.69,7.37-27.82Z"/>
      <path d="M162.42,71.39c-.76.15-.7.11-1.14-.35-.79-.84-1.19-1.94-2.46-2.94-3.22-2.56-13.52-7.43-17.46-7.44-4.08-.01-3.33-.29-6.84-.82-1.91-.29-3.73.23-5.78-.29-4.07-1.03-9.42-6.52-13.4-8.68-2.65-1.44-5.48-1.9-7.93-3.64-2.97,2.17-6.23,1.52-9.04,2.34-2.96.87-8.13,5.78-11.06,7.15-4.21,1.97-8.52,3.38-13.09,4.58-2.73.71-3.15,2-6.73.16,16.74-15.92,41.33-23.5,64.3-20.97,11.78,1.3,22.85,5.17,32.65,11.01-.77-.09-.5.93-.28,1.67.05.17.09.31.13.44.01.03.02.06.02.08,0,.03.01.05.02.07,1.32,6.86,1.22,11.22-1.91,17.64Z" fill="#063"/>
      <path d="M163.83,194.05c-.08-.23-.15-.45-.24-.67-.02,0-.03,0-.05,0-.2-.61-.43-1.2-.68-1.78-.02-.04-.04-.08-.06-.13-.12-.26-.24-.52-.36-.77-.1-.2-.2-.41-.3-.61-.13-.27-.28-.53-.42-.79-.01-.02-.02-.04-.04-.07-.18-.33-.37-.66-.56-.98-.45-.75-.93-1.49-1.44-2.21-.19-.28-.4-.55-.6-.82-.23-.3-.46-.61-.7-.91-.08-.09-.15-.19-.23-.28-.19-.24-.39-.48-.6-.72-.07-.09-.15-.17-.22-.25-.19-.23-.4-.45-.6-.67-.08-.09-.17-.19-.25-.28-.19-.2-.38-.4-.56-.6-.25-.26-.51-.52-.77-.78-.12-.12-.24-.24-.36-.36-.18-.18-.37-.36-.56-.54-.13-.13-.26-.25-.4-.38-.2-.19-.41-.38-.63-.57-.29-.26-.59-.51-.89-.77-.02-.02-.04-.03-.06-.04-.26-.22-.52-.44-.79-.65-.1-.09-.22-.18-.33-.26-.28-.22-.56-.44-.84-.66t-.01-.01c-.27-.2-.54-.41-.82-.61-.3-.23-.62-.46-.94-.68-.29-.22-.59-.42-.89-.62-.29-.2-.59-.4-.88-.6-.1-.07-.2-.14-.31-.2-.33-.21-.66-.43-.99-.63-.28-.18-.56-.35-.84-.52-.46-.28-.93-.56-1.4-.82-.38-.22-.75-.43-1.13-.64s-.76-.41-1.14-.62-.76-.4-1.14-.6c-.39-.19-.77-.39-1.15-.57-.77-.38-1.53-.74-2.3-1.09-.39-.17-.77-.34-1.15-.51-.02,0-.03-.01-.05-.02-.75-.32-1.48-.63-2.22-.93-.39-.15-.77-.3-1.16-.45-.4-.15-.79-.3-1.19-.45-19.48-7.22-47.97-5.85-50.91-32.44-.62-5.56.62-12.08-3.65-16.77-2.56-2.82-9.61-5.85-9.65.17l1.14.87c-.44-.06-.85-.06-1.08.41-.87,1.81-.73,9.12-.57,11.48.07,1.1-.44,1.6,1.1,1.36-2.36-5.92,2.98-10.52,6.62-14.35,1.02,7.13-3.1,10.98-7.18,15.76.89,4.89,2.05,10.64,5.53,14.32-1.79,1.39-3.73-4.06-4.29-5.65-.77-2.14-1.07-5.6-2.1-7.31-.76-1.27-2.51-.78-3.94-1.55-3.44-1.85-5.49-7.94-5.13-11.71,2.8.44,4.84,2.7,6.52,4.79l2.3,5.7c-.56-2.67.79-10.74-.71-12.54-.5-.6-1.87-.81-2.62-1.68-2.69-3.16-2.41-9.44-2.19-13.38,1.05-1.28,5.6,6.82,5.48,8.04l.46,4.62c.04-3.41,3.04-7.94,2.23-10.62-.26-.86-1.49-1.45-1.99-2.45-1.95-3.94.22-9.38.99-13.4,1.55-.17,1.93,1.71,2.46,2.78l1.39,8.81c.01-1.94,2.56-4.32,2.77-5.83.23-1.62-.87-2.5-1.08-3.85-.63-4.11,1.67-10.8,4.93-13.5,1.3,5.03.57,9.25-1.64,13.8,4.66-3.35,8.21-5.65,14.35-4.14-2.35,2.65-5.63,5.21-9.3,5.49-1.34.1-3.87-.75-4.94-.12-.37.22-4.27,7.26-3.97,7.61,3.03-2.84,6.81-4.9,11.03-5.25-2.02,3.63-4.22,6.73-8.16,8.4-4.19,1.77-6.24.21-6.73,6.79,7.47-7.33,18.08-9.22,26.89-2.89,4.4,3.16,2.99,4.29,4.54,8.71,2.2,6.22,8.25,12.86,15.47,11.84l-4.61-1.72c-6.94-3.79-12.22-11.55-7.82-19.27,10.01-17.56,38.88-15.07,54.13-29.22.88-.82,4.64-4.38,3.88-5.55-.92-1.4-4.74-2.96-6.14-3.84-.48-.3-.54-1.28-1.22-1.66-1.28-.71-2.9-.04-3.84-.41-7.99-3.21-10.8-2.57-18.93-3.67-3.06-.41-7.68-3.61-10.76-4.75l.28,2.75-3.11-2.16-2.21,1.58-2.21-1.59-2.14,1.61c-1.88-2.16-2.99-2.61-5.49-1.06l-2.33-3.28-4.05,1.04.82-2.21c-3.19,1.57-7.16,1.84-10.25,3.55-2.75,1.53-5.59,3.35-8.79,4.46-1.4.49-7.02,2.25-8.15,2.38-2.04.24-4.47-.77-6.02-2.03l-.72.17c-41.88,40.18-29.38,111.78,24.08,134.93,26.15,11.32,53.31,8.3,74.73-4.25-.07.03-.15.04-.26.03ZM129.8,70.62l-1.87-6.41c5.24,6.93,6.62,17.3,2.46,25.09l-9.91,3.05c6.29-5.61,10.38-12.96,9.32-21.74ZM81.52,85.15c.53-1.02.46-2.35.99-3.42,1.8-3.63,7.2-6.71,10.91-8.13-1.13,8.05-9.51,9.74-14.34,14.9-.1-1.61,1.82-2.16,2.44-3.35ZM81.29,192.27c-.99-1.18,4.3-2.82,4.69-3.85l.27,6.07-4.96-2.22ZM98.22,190.73c-1.68,1.21-6.82,6.11-8.24,5.9-.77-.12-1.65-1.11-2.62-1.03v-22.63l-1.65,1.1-.06-6.02-6.57-1.16v23.18l-2.76-1.38v-22.91h-1.1v21.53h-1.1v-14.9c-.36-.04-1.1.73-1.1.83v10.76h-.55v-18.77l-7.73-1.66v14.9c-4.95-2.99-1.94-10.51-2.79-15.43l-3.83-.58v7.73c-2.78-1.98-4-5.02-2.76-8.26-4.85.12-4.62-5.46-7.17-8.58l.81-.26c29.01,7.79,58.37,14.47,86.95,23.74.12,1.03-1.16.46-1.77.39-2.06-.23-4.13-1.02-6.23-.99-9.64.12-22.06,8.97-29.71,14.5ZM162.14,193.4l-1.92-.56.49,1.02-7.39,3.94-2.47-3.86,1.1,4.41-5.71,1.62c-2.43-3.72-4-7.98-6.76-11.5-3.81-4.86-9.25-8.67-15.69-8.33.09-.81,2.42-.93,3.1-1.03,9.1-1.21,15.09,1.67,20.63,8.76-1.84-4.44-5.86-8.11-10.48-9.39-.13-1.02,1.15-.48,1.67-.29.98.35,2.32,1.14,3.3,1.67,2.38,1.28,5.84,4.52,7.45,5.25.24.11.91.14.82-.27-9.17-8.1-22-11.92-33.56-15.57-22.75-7.18-46.12-12.51-68.98-19.3l-2.35-5.14c16.35,4.79,32.78,9.53,49,14.75,17.6,5.67,40.47,11.55,55.04,22.8,4.19,3.23,7.88,8.08,12.99,9.93l-.29,1.1Z" fill="#063"/>
      <path d="M204.96,118.56c-1.19-28.2-17.25-53.19-40.51-67.06.96,1.74,1.72,3.51,2.28,5.27,3.47,10.12.29,20.19-7.37,27.82-.57.57-1.17,1.13-1.79,1.67l-6.17,4.45c5.5-1.91,10.49-6.48,14.07-11.03.2,1.79-2.27,4.74-3.6,6.33-3.58,4.25-8.15,6.87-12.68,9.95.4.79,1.44-.02,1.96-.25,4.22-1.84,8.4-4.38,11.56-7.76.9.55-.18,1.23-.55,1.66-1.98,2.34-4.39,4.27-6.35,6.61l6.9-4.96c.72,1.34-1.46,3.16-2.48,4.15-3.85,3.73-9.61,7-14.9,8-.16.93,1.36.62,1.89.51,2.68-.54,5.69-2.29,8.21-3.38l7-4.86c1.07,4.75-2.72,5.87-4.95,9.1l2.47.27c1.5,1.68-2.69,1.64-3.05,1.97-1.46,1.29-1.3,8.88-1.04,10.97.41,3.3,4.91,10.4.92,12.04-4.26,1.76-8.27-.79-7.83,7.08l-3.63.52c2.42,6.13-2.73,3.98-3.74,5.07-.99,1.07-.95,4.94-1.53,6.49-.31.84-2.59,3.17-3.28,3.35-1.85.46-7.54,0-9.94,0-.09,0-.87.75-.83,1.1,9.6-.44,19.99,2.26,26.5,9.67-1.79.26-3.68-1.36-5.37-1.81-.54-.14-1.94-.56-1.8.42,5.41,1.02,9.25,5.48,12.69,9.38l-10.9-6.49-1.79.42c11.18,3.73,17.56,15.04,18.6,26.39,0,.02,0,.05.01.08.09.57.65,1.92.24,2.27,25.01-14.69,42.18-42.39,40.78-75.41ZM186.71,126.59c-2.75-.93-3.44-5.1-3.85-7.72,1.04-1.17,4.6,6.7,3.85,7.72ZM169.21,106.6c.66-1.83,4.95-10.25,6.09-11.3.87-.81,2.64-2.21,3.74-3.16.77-.65,3.36-2.88,3.81-.88-3.57.55-6.65,6.67-8.12,9.83-4.11,8.82-3.8,23.21-3.49,32.98.15,4.84,2.35,7.14-3.84,9.63-.12-11.84-2.27-25.76,1.81-37.1ZM188.29,148.87c-.52.71-4.16,3.98-4.91,4.47-3.69,2.4-6.09.49-9.9-.25-1.28,6.01-7.6,13.46-14.36,11.59-.44-1.89,2.54-.89,4.01-1.23,3.62-.83,6.98-3.96,7.05-7.86.04-2.36-1.89-8.04-1.54-9.89.07-.38,2.56-2.94,2.91-3.09,1.45-.61,1.81,4.58,2.11,5.35.7,1.77,9.78,5.18,11.4,2.09.15-1.43-1.28-.03-2.77-.5-1.16-.36-4.31-2.89-4.89-3.99-2-3.83,2.65-7.42,4.57-10.19.48-.69.53-2.09,1.23-3.13.71-1.05,2.47-1.68,3.23-2.88l3.59,12.4c.3,2.44-.26,5.13-1.74,7.1ZM189.22,96.25c-.96,2.2-2.5,9.03-2.5,11.3v13.52c-.83-.26-1.57-1.63-1.81-2.38-2.26-7.1-2.33-15.05,1.63-21.77l5.7-5.37c-1.01,1.78-2.15,2.68-3.03,4.7Z" fill="#ff6b00"/>
      <path d="M185.06,144.81c-4.56-1.64-5.91-4.37-2.48-8.28l2.48,8.28Z" fill="#ff6b00"/>
      <path d="M93.42,73.6c-1.13,8.05-9.51,9.74-14.34,14.9-.1-1.61,1.82-2.16,2.44-3.35.53-1.02.46-2.35.99-3.42,1.8-3.63,7.2-6.71,10.91-8.13Z" fill="#fff"/>
      <path d="M86.25,194.49l-4.96-2.22c-.99-1.18,4.3-2.82,4.69-3.85l.27,6.07Z" fill="#fff"/>
      <path d="M96.18,183.17c-.72.87-3.33,1.8-4.41,2.49v-16.56l4.91,1.16c-.34,2.65.89,11.24-.5,12.91Z" fill="#063"/>
      <path d="M106.13,173.51v10.49c-1.29.07-.98.19-1.1-.82-.25-1.98.19-4.33,0-6.35l-1.09,3.04-4.97,1.93v-11.04c2.22.81,6.32.15,6.08,3.32l1.09-.56Z" fill="#063"/>
      <path d="M118.82,177.37l-.56-1.65-4.38.58-.03,3.28c-2.05.55-.67-2.15-1.1-2.75l-6.06,1.66v-6.07c2.39.65,4.95-.03,4.42,3.32l1.1-2.21.59,1.04c2.18-.51,7.84-.57,6.02,2.82Z" fill="#063"/>
      <polygon points="90.66 184 90.66 188.97 89.56 186.76 88.46 187.31 88.46 168.55 89.57 168.55 89.57 184.55 90.66 184" fill="#063"/>
      <path d="M98.4,172.96v16.01h-1.1v-15.18c0-.09.75-.87,1.1-.83Z" fill="#063"/>
    </g>
    <text transform="translate(28.98 100.61) rotate(-72.29)" fill="#063" font-family="Calibri, Calibri" font-size="22.73"><tspan x="0" y="0">ﻒ</tspan></text>
    <text transform="translate(35.87 80.88) rotate(-64.04)" fill="#063" font-family="Calibri, Calibri" font-size="22.73"><tspan x="0" y="0">ﻠ</tspan></text>
    <text transform="translate(38.51 74.9) rotate(-57.24)" fill="#063" font-family="Calibri, Calibri" font-size="22.73"><tspan x="0" y="0">ﺸ</tspan></text>
    <text transform="translate(47.47 61.6) rotate(-50.67)" fill="#063" font-family="Calibri, Calibri" font-size="22.73"><tspan x="0" y="0">ﻟ</tspan></text>
    <text transform="translate(51.45 56.81) rotate(-47.18)" fill="#063" font-family="Calibri, Calibri" font-size="22.73"><tspan x="0" y="0">ﺍ</tspan></text>
    <text transform="translate(55.15 52.85) rotate(-43.69)" fill="#063" font-family="Calibri, Calibri" font-size="22.73"><tspan x="0" y="0"> </tspan></text>
    <text transform="translate(59.34 48.62) rotate(-37.77)" fill="#063" font-family="Calibri, Calibri" font-size="22.73"><tspan x="0" y="0">ﻲ</tspan></text>
    <text transform="translate(70.41 40.34) rotate(-31.63)" fill="#063" font-family="Calibri, Calibri" font-size="22.73"><tspan x="0" y="0">ﻠ</tspan></text>
    <text transform="translate(76.05 36.77) rotate(-26.03)" fill="#063" font-family="Calibri, Calibri" font-size="22.73"><tspan x="0" y="0">ﻋ</tspan></text>
    <text transform="translate(86.56 31.69) rotate(-19.02)" fill="#063" font-family="Calibri, Calibri" font-size="22.73"><tspan x="0" y="0">ﻮ</tspan></text>
    <text transform="translate(97.59 28.06) rotate(-13.54)" fill="#063" font-family="Calibri, Calibri" font-size="22.73"><tspan x="0" y="0">ﺑ</tspan></text>
    <text transform="translate(104.05 26.55) rotate(-9.66)" fill="#063" font-family="Calibri, Calibri" font-size="22.73"><tspan x="0" y="0"> </tspan></text>
    <text transform="translate(109.91 25.39) rotate(-3.72)" fill="#063" font-family="Calibri, Calibri" font-size="22.73"><tspan x="0" y="0">ﻦ</tspan></text>
    <text transform="translate(123.68 24.73) rotate(2.24)" fill="#063" font-family="Calibri, Calibri" font-size="22.73"><tspan x="0" y="0">ﺑ</tspan></text>
    <text transform="translate(130.31 25.03) rotate(6.09)" fill="#063" font-family="Calibri, Calibri" font-size="22.73"><tspan x="0" y="0"> </tspan></text>
    <text transform="translate(136.35 25.61) rotate(11.17)" fill="#063" font-family="Calibri, Calibri" font-size="22.73"><tspan x="0" y="0">ﺔ</tspan></text>
    <text transform="translate(146.82 27.8) rotate(16.67)" fill="#063" font-family="Calibri, Calibri" font-size="22.73"><tspan x="0" y="0">ﺒ</tspan></text>
    <text transform="translate(154.04 30) rotate(21.26)" fill="#063" font-family="Calibri, Calibri" font-size="22.73"><tspan x="0" y="0">ﻴ</tspan></text>
    <text transform="translate(160.9 32.43) rotate(28.3)" fill="#063" font-family="Calibri, Calibri" font-size="22.73"><tspan x="0" y="0">ﺴ</tspan></text>
    <text transform="translate(174.75 40) rotate(37.25)" fill="#063" font-family="Calibri, Calibri" font-size="22.73"><tspan x="0" y="0">ﺣ</tspan></text>
    <text transform="translate(186 48.89) rotate(43.32)" fill="#063" font-family="Calibri, Calibri" font-size="22.73"><tspan x="0" y="0"> </tspan></text>
    <text transform="translate(190.44 52.99) rotate(48.35)" fill="#063" font-family="Calibri, Calibri" font-size="22.73"><tspan x="0" y="0">ﺔ</tspan></text>
    <text transform="translate(197.46 60.93) rotate(54.78)" fill="#063" font-family="Calibri, Calibri" font-size="22.73"><tspan x="0" y="0">ﻌ</tspan></text>
    <text transform="translate(203.67 69.85) rotate(61.01)" fill="#063" font-family="Calibri, Calibri" font-size="22.73"><tspan x="0" y="0">ﻣ</tspan></text>
    <text transform="translate(208.4 78.64) rotate(65.91)" fill="#063" font-family="Calibri, Calibri" font-size="22.73"><tspan x="0" y="0">ﺎ</tspan></text>
    <text transform="translate(211.05 84.11) rotate(72.1)" fill="#063" font-family="Calibri, Calibri" font-size="22.73"><tspan x="0" y="0">ﺟ</tspan></text>
  </g>
  <polygon points="24.92 120.41 20.48 117.3 16.15 120.57 17.73 115.38 13.28 112.27 18.71 112.17 20.29 106.98 22.06 112.11 27.49 112.02 23.16 115.28 24.92 120.41" fill="#ff6b00"/>
</svg>